<svg width="100" height="100" viewBox="0 0 100 100" fill="none" xmlns="http://www.w3.org/2000/svg">
<rect width="100" height="100" rx="8" fill="#E0EDF5"/>
<path d="M77.1875 35C76.9389 35 76.7004 35.0988 76.5246 35.2746C76.3488 35.4504 76.25 35.6889 76.25 35.9375V69.6875H71.1594C65.1264 69.6881 59.1129 70.3731 53.2344 71.7294C52.8656 71.8138 52.48 71.7842 52.1284 71.6446C51.7769 71.505 51.476 71.2619 51.2656 70.9475C54.6128 68.8986 58.4608 67.8137 62.3853 67.8125H73.4375C73.6861 67.8125 73.9246 67.7137 74.1004 67.5379C74.2762 67.3621 74.375 67.1236 74.375 66.875V60.3125C74.375 60.0639 74.2762 59.8254 74.1004 59.6496C73.9246 59.4738 73.6861 59.375 73.4375 59.375C73.1889 59.375 72.9504 59.4738 72.7746 59.6496C72.5988 59.8254 72.5 60.0639 72.5 60.3125V65.9375H62.3853C58.3731 65.9337 54.4286 66.9713 50.9375 68.9487V43.4375C50.9375 43.1889 50.8387 42.9504 50.6629 42.7746C50.4871 42.5988 50.2486 42.5 50 42.5C49.7514 42.5 49.5129 42.5988 49.3371 42.7746C49.1613 42.9504 49.0625 43.1889 49.0625 43.4375V68.9478C45.5714 66.9705 41.6268 65.9332 37.6147 65.9375H27.5V32.1875H41.9375C43.8276 32.1887 45.6399 32.9405 46.9759 34.2774C48.312 35.6143 49.0625 37.4271 49.0625 39.3172C49.0625 39.5658 49.1613 39.8043 49.3371 39.9801C49.5129 40.1559 49.7514 40.2547 50 40.2547C50.2486 40.2547 50.4871 40.1559 50.6629 39.9801C50.8387 39.8043 50.9375 39.5658 50.9375 39.3172C50.9375 37.4271 51.688 35.6143 53.0241 34.2774C54.3601 32.9405 56.1724 32.1887 58.0625 32.1875H72.5V56.5625C72.5 56.8111 72.5988 57.0496 72.7746 57.2254C72.9504 57.4012 73.1889 57.5 73.4375 57.5C73.6861 57.5 73.9246 57.4012 74.1004 57.2254C74.2762 57.0496 74.375 56.8111 74.375 56.5625V31.25C74.375 31.0014 74.2762 30.7629 74.1004 30.5871C73.9246 30.4113 73.6861 30.3125 73.4375 30.3125H58.0625C56.3867 30.3137 54.7445 30.7822 53.3203 31.6652C51.8961 32.5482 50.7463 33.8108 50 35.3113C49.2537 33.8108 48.1039 32.5482 46.6797 31.6652C45.2555 30.7822 43.6132 30.3137 41.9375 30.3125H26.5625C26.3139 30.3125 26.0754 30.4113 25.8996 30.5871C25.7238 30.7629 25.625 31.0014 25.625 31.25V66.875C25.625 67.1236 25.7238 67.3621 25.8996 67.5379C26.0754 67.7137 26.3139 67.8125 26.5625 67.8125H37.6147C41.5398 67.8134 45.3885 68.8982 48.7362 70.9475C48.5252 71.2611 48.2242 71.5036 47.8729 71.6431C47.5215 71.7826 47.1362 71.8127 46.7675 71.7294C40.8884 70.3728 34.8743 69.6878 28.8406 69.6875H23.75V35.9375C23.75 35.6889 23.6512 35.4504 23.4754 35.2746C23.2996 35.0988 23.0611 35 22.8125 35C22.5639 35 22.3254 35.0988 22.1496 35.2746C21.9738 35.4504 21.875 35.6889 21.875 35.9375V70.625C21.875 70.8736 21.9738 71.1121 22.1496 71.2879C22.3254 71.4637 22.5639 71.5625 22.8125 71.5625H28.8406C34.7316 71.5634 40.6035 72.2324 46.3438 73.5566C47.0037 73.7089 47.6927 73.6788 48.3368 73.4693C48.9809 73.2599 49.5558 72.8791 50 72.3678C50.444 72.8793 51.019 73.2602 51.6631 73.4696C52.3073 73.6791 52.9963 73.7091 53.6563 73.5566C59.3965 72.2326 65.2684 71.5636 71.1594 71.5625H77.1875C77.4361 71.5625 77.6746 71.4637 77.8504 71.2879C78.0262 71.1121 78.125 70.8736 78.125 70.625V35.9375C78.125 35.6889 78.0262 35.4504 77.8504 35.2746C77.6746 35.0988 77.4361 35 77.1875 35Z" fill="#008DC8"/>
<path d="M46.9278 38.3872C45.4505 37.4007 43.7139 36.8744 41.9375 36.875H31.25C31.0014 36.875 30.7629 36.9738 30.5871 37.1496C30.4113 37.3254 30.3125 37.5639 30.3125 37.8125C30.3125 38.0611 30.4113 38.2996 30.5871 38.4754C30.7629 38.6512 31.0014 38.75 31.25 38.75H41.9375C43.3451 38.7484 44.7215 39.1651 45.8919 39.9472C46.0987 40.0852 46.352 40.1353 46.5958 40.0866C46.8397 40.0379 47.0542 39.8944 47.1922 39.6875C47.3302 39.4806 47.3803 39.2274 47.3316 38.9836C47.2829 38.7397 47.1394 38.5252 46.9325 38.3872H46.9278Z" fill="#008DC8"/>
<path d="M68.7502 36.875H58.0627C56.2847 36.8736 54.5463 37.3999 53.0677 38.3872C52.9653 38.4555 52.8773 38.5434 52.8088 38.6457C52.7403 38.748 52.6927 38.8628 52.6685 38.9836C52.6444 39.1043 52.6443 39.2286 52.6683 39.3494C52.6922 39.4702 52.7397 39.5851 52.808 39.6875C52.8763 39.7899 52.9642 39.8779 53.0665 39.9464C53.1688 40.0149 53.2836 40.0625 53.4044 40.0866C53.5251 40.1108 53.6494 40.1109 53.7702 40.0869C53.891 40.063 54.0059 40.0155 54.1083 39.9472C55.2788 39.1653 56.6551 38.7487 58.0627 38.75H68.7502C68.9988 38.75 69.2373 38.6512 69.4131 38.4754C69.5889 38.2996 69.6877 38.0611 69.6877 37.8125C69.6877 37.5639 69.5889 37.3254 69.4131 37.1496C69.2373 36.9738 68.9988 36.875 68.7502 36.875Z" fill="#008DC8"/>
<path d="M46.9278 43.0747C45.4505 42.0882 43.7139 41.5619 41.9375 41.5625H31.25C31.0014 41.5625 30.7629 41.6613 30.5871 41.8371C30.4113 42.0129 30.3125 42.2514 30.3125 42.5C30.3125 42.7486 30.4113 42.9871 30.5871 43.1629C30.7629 43.3387 31.0014 43.4375 31.25 43.4375H41.9375C43.3451 43.4359 44.7215 43.8526 45.8919 44.6347C46.0987 44.7727 46.352 44.8228 46.5958 44.7741C46.8397 44.7254 47.0542 44.5819 47.1922 44.375C47.3302 44.1681 47.3803 43.9149 47.3316 43.6711C47.2829 43.4272 47.1394 43.2127 46.9325 43.0747H46.9278Z" fill="#008DC8"/>
<path d="M68.7502 41.5625H58.0627C56.2847 41.5611 54.5463 42.0874 53.0677 43.0747C52.9653 43.143 52.8773 43.2309 52.8088 43.3332C52.7403 43.4355 52.6927 43.5503 52.6685 43.6711C52.6444 43.7918 52.6443 43.9161 52.6683 44.0369C52.6922 44.1577 52.7397 44.2726 52.808 44.375C52.8763 44.4774 52.9642 44.5654 53.0665 44.6339C53.1688 44.7024 53.2836 44.75 53.4044 44.7741C53.5251 44.7983 53.6494 44.7984 53.7702 44.7744C53.891 44.7505 54.0059 44.703 54.1083 44.6347C55.2788 43.8528 56.6551 43.4362 58.0627 43.4375H68.7502C68.9988 43.4375 69.2373 43.3387 69.4131 43.1629C69.5889 42.9871 69.6877 42.7486 69.6877 42.5C69.6877 42.2514 69.5889 42.0129 69.4131 41.8371C69.2373 41.6613 68.9988 41.5625 68.7502 41.5625Z" fill="#008DC8"/>
<path d="M46.9278 47.7622C45.4505 46.7757 43.7139 46.2494 41.9375 46.25H31.25C31.0014 46.25 30.7629 46.3488 30.5871 46.5246C30.4113 46.7004 30.3125 46.9389 30.3125 47.1875C30.3125 47.4361 30.4113 47.6746 30.5871 47.8504C30.7629 48.0262 31.0014 48.125 31.25 48.125H41.9375C43.3451 48.1234 44.7215 48.5401 45.8919 49.3222C46.0987 49.4602 46.352 49.5103 46.5958 49.4616C46.8397 49.4129 47.0542 49.2694 47.1922 49.0625C47.3302 48.8556 47.3803 48.6024 47.3316 48.3586C47.2829 48.1147 47.1394 47.9002 46.9325 47.7622H46.9278Z" fill="#008DC8"/>
<path d="M68.7502 46.25H58.0627C56.2847 46.2486 54.5463 46.7749 53.0677 47.7622C52.9653 47.8305 52.8773 47.9184 52.8088 48.0207C52.7403 48.123 52.6927 48.2378 52.6685 48.3586C52.6444 48.4793 52.6443 48.6036 52.6683 48.7244C52.6922 48.8452 52.7397 48.9601 52.808 49.0625C52.8763 49.1649 52.9642 49.2529 53.0665 49.3214C53.1688 49.3899 53.2836 49.4375 53.4044 49.4616C53.5251 49.4858 53.6494 49.4859 53.7702 49.4619C53.891 49.438 54.0059 49.3905 54.1083 49.3222C55.2788 48.5403 56.6551 48.1237 58.0627 48.125H68.7502C68.9988 48.125 69.2373 48.0262 69.4131 47.8504C69.5889 47.6746 69.6877 47.4361 69.6877 47.1875C69.6877 46.9389 69.5889 46.7004 69.4131 46.5246C69.2373 46.3488 68.9988 46.25 68.7502 46.25Z" fill="#008DC8"/>
<path d="M46.9278 52.4497C45.4505 51.4632 43.7139 50.9369 41.9375 50.9375H31.25C31.0014 50.9375 30.7629 51.0363 30.5871 51.2121C30.4113 51.3879 30.3125 51.6264 30.3125 51.875C30.3125 52.1236 30.4113 52.3621 30.5871 52.5379C30.7629 52.7137 31.0014 52.8125 31.25 52.8125H41.9375C43.3451 52.8109 44.7215 53.2276 45.8919 54.0097C45.9943 54.078 46.1092 54.1255 46.23 54.1494C46.3508 54.1734 46.4751 54.1733 46.5958 54.1491C46.7166 54.125 46.8314 54.0774 46.9337 54.0089C47.036 53.9404 47.1239 53.8524 47.1922 53.75C47.2605 53.6476 47.308 53.5327 47.3319 53.4119C47.3559 53.2911 47.3558 53.1668 47.3316 53.0461C47.3075 52.9253 47.2599 52.8105 47.1914 52.7082C47.1229 52.6058 47.0349 52.518 46.9325 52.4497H46.9278Z" fill="#008DC8"/>
<path d="M68.7502 50.9375H58.0627C56.2847 50.9361 54.5463 51.4624 53.0677 52.4497C52.8608 52.5877 52.7173 52.8022 52.6686 53.0461C52.6199 53.2899 52.67 53.5431 52.808 53.75C52.946 53.9569 53.1605 54.1005 53.4044 54.1492C53.6482 54.1979 53.9015 54.1477 54.1083 54.0097C55.2788 53.2278 56.6551 52.8112 58.0627 52.8125H68.7502C68.9988 52.8125 69.2373 52.7137 69.4131 52.5379C69.5889 52.3621 69.6877 52.1236 69.6877 51.875C69.6877 51.6264 69.5889 51.3879 69.4131 51.2121C69.2373 51.0363 68.9988 50.9375 68.7502 50.9375Z" fill="#008DC8"/>
<path d="M46.9278 57.1372C45.4505 56.1507 43.7139 55.6244 41.9375 55.625H31.25C31.0014 55.625 30.7629 55.7238 30.5871 55.8996C30.4113 56.0754 30.3125 56.3139 30.3125 56.5625C30.3125 56.8111 30.4113 57.0496 30.5871 57.2254C30.7629 57.4012 31.0014 57.5 31.25 57.5H41.9375C43.3451 57.4984 44.7215 57.9151 45.8919 58.6972C46.0987 58.8352 46.352 58.8854 46.5958 58.8367C46.8397 58.788 47.0542 58.6444 47.1922 58.4375C47.3302 58.2306 47.3803 57.9774 47.3316 57.7336C47.2829 57.4897 47.1394 57.2752 46.9325 57.1372H46.9278Z" fill="#008DC8"/>
<path d="M68.7502 55.625H58.0627C56.2847 55.6236 54.5463 56.1499 53.0677 57.1372C52.9653 57.2055 52.8773 57.2933 52.8088 57.3957C52.7403 57.498 52.6927 57.6128 52.6685 57.7336C52.6444 57.8543 52.6443 57.9786 52.6683 58.0994C52.6922 58.2202 52.7397 58.3351 52.808 58.4375C52.946 58.6444 53.1605 58.7879 53.4044 58.8366C53.5251 58.8608 53.6494 58.8608 53.7702 58.8369C53.891 58.813 54.0059 58.7655 54.1083 58.6972C55.2788 57.9153 56.6551 57.4987 58.0627 57.5H68.7502C68.9988 57.5 69.2373 57.4012 69.4131 57.2254C69.5889 57.0496 69.6877 56.8111 69.6877 56.5625C69.6877 56.3139 69.5889 56.0754 69.4131 55.8996C69.2373 55.7238 68.9988 55.625 68.7502 55.625Z" fill="#008DC8"/>
<path d="M41.9375 60.3125H31.25C31.0014 60.3125 30.7629 60.4113 30.5871 60.5871C30.4113 60.7629 30.3125 61.0014 30.3125 61.25C30.3125 61.4986 30.4113 61.7371 30.5871 61.9129C30.7629 62.0887 31.0014 62.1875 31.25 62.1875H41.9375C43.3451 62.1859 44.7215 62.6026 45.8919 63.3847C45.9943 63.453 46.1092 63.5005 46.23 63.5244C46.3508 63.5483 46.4751 63.5483 46.5958 63.5241C46.7166 63.5 46.8314 63.4524 46.9337 63.3839C47.036 63.3154 47.1239 63.2274 47.1922 63.125C47.2605 63.0226 47.308 62.9077 47.3319 62.7869C47.3559 62.6661 47.3558 62.5418 47.3316 62.4211C47.3075 62.3003 47.2599 62.1855 47.1914 62.0832C47.1229 61.9808 47.0349 61.893 46.9325 61.8247C45.4539 60.8373 43.7155 60.311 41.9375 60.3125Z" fill="#008DC8"/>
<path d="M68.7502 60.3125H58.0627C56.2847 60.3111 54.5463 60.8374 53.0677 61.8247C52.9653 61.893 52.8773 61.9808 52.8088 62.0832C52.7403 62.1855 52.6927 62.3003 52.6685 62.4211C52.6444 62.5418 52.6443 62.6661 52.6683 62.7869C52.6922 62.9077 52.7397 63.0226 52.808 63.125C52.8763 63.2274 52.9642 63.3154 53.0665 63.3839C53.1688 63.4524 53.2836 63.5 53.4044 63.5241C53.5251 63.5483 53.6494 63.5483 53.7702 63.5244C53.891 63.5005 54.0059 63.453 54.1083 63.3847C55.2788 62.6028 56.6551 62.1862 58.0627 62.1875H68.7502C68.9988 62.1875 69.2373 62.0887 69.4131 61.9129C69.5889 61.7371 69.6877 61.4986 69.6877 61.25C69.6877 61.0014 69.5889 60.7629 69.4131 60.5871C69.2373 60.4113 68.9988 60.3125 68.7502 60.3125Z" fill="#008DC8"/>
</svg>
