<svg width="100" height="100" viewBox="0 0 100 100" fill="none" xmlns="http://www.w3.org/2000/svg">
<rect width="100" height="100" rx="8" fill="#E0EDF5"/>
<path d="M77.1875 29.5H76.25V31.375H77.1875C77.705 31.3756 78.1244 31.795 78.125 32.3125V75.4375C78.1244 75.955 77.705 76.3744 77.1875 76.375H30.3125C29.795 76.3744 29.3756 75.955 29.375 75.4375V74.5H27.5V75.4375C27.5017 76.9901 28.7599 78.2483 30.3125 78.25H77.1875C78.7401 78.2483 79.9983 76.9901 80 75.4375V32.3125C79.9983 30.7599 78.7401 29.5017 77.1875 29.5Z" fill="#008DC8"/>
<path fill-rule="evenodd" clip-rule="evenodd" d="M74.375 69.8125V26.6875C74.3733 25.1349 73.1151 23.8767 71.5625 23.875H70.625V22.9375C70.625 22.4197 70.2053 22 69.6875 22C69.1697 22 68.75 22.4197 68.75 22.9375V23.875H66.875V22.9375C66.875 22.4197 66.4553 22 65.9375 22C65.4197 22 65 22.4197 65 22.9375V23.875H63.125V22.9375C63.125 22.4197 62.7053 22 62.1875 22C61.6697 22 61.25 22.4197 61.25 22.9375V23.875H59.375V22.9375C59.375 22.4197 58.9553 22 58.4375 22C57.9197 22 57.5 22.4197 57.5 22.9375V23.875H55.625V22.9375C55.625 22.4197 55.2053 22 54.6875 22C54.1697 22 53.75 22.4197 53.75 22.9375V23.875H51.875V22.9375C51.875 22.4197 51.4553 22 50.9375 22C50.4197 22 50 22.4197 50 22.9375V23.875H48.125V22.9375C48.125 22.4197 47.7053 22 47.1875 22C46.6697 22 46.25 22.4197 46.25 22.9375V23.875H44.375V22.9375C44.375 22.4197 43.9553 22 43.4375 22C42.9197 22 42.5 22.4197 42.5 22.9375V23.875H40.625V22.9375C40.625 22.4197 40.2053 22 39.6875 22C39.1697 22 38.75 22.4197 38.75 22.9375V23.875H36.875V22.9375C36.875 22.4197 36.4553 22 35.9375 22C35.4197 22 35 22.4197 35 22.9375V23.875H33.0957V22.9375C33.0957 22.4197 32.676 22 32.1582 22C31.6404 22 31.2207 22.4197 31.2207 22.9375V23.875H29.375V22.9375C29.375 22.4197 28.9553 22 28.4375 22C27.9197 22 27.5 22.4197 27.5 22.9375V23.875H25.625V22.9375C25.625 22.4197 25.2053 22 24.6875 22C24.1697 22 23.75 22.4197 23.75 22.9375V23.875H22.8125C21.2599 23.8767 20.0017 25.1349 20 26.6875V69.8125C20.0017 71.3651 21.2599 72.6233 22.8125 72.625H71.5625C73.1151 72.6233 74.3733 71.3651 74.375 69.8125ZM22.8125 25.75H23.75V26.6875C23.75 27.2053 24.1697 27.625 24.6875 27.625C25.2053 27.625 25.625 27.2053 25.625 26.6875V25.75H27.5V26.6875C27.5 27.2053 27.9197 27.625 28.4375 27.625C28.9553 27.625 29.375 27.2053 29.375 26.6875V25.75H31.2207V26.6875C31.2207 27.2053 31.6404 27.625 32.1582 27.625C32.676 27.625 33.0957 27.2053 33.0957 26.6875V25.75H35V26.6875C35 27.2053 35.4197 27.625 35.9375 27.625C36.4553 27.625 36.875 27.2053 36.875 26.6875V25.75H38.75V26.6875C38.75 27.2053 39.1697 27.625 39.6875 27.625C40.2053 27.625 40.625 27.2053 40.625 26.6875V25.75H42.5V26.6875C42.5 27.2053 42.9197 27.625 43.4375 27.625C43.9553 27.625 44.375 27.2053 44.375 26.6875V25.75H46.25V26.6875C46.25 27.2053 46.6697 27.625 47.1875 27.625C47.7053 27.625 48.125 27.2053 48.125 26.6875V25.75H50V26.6875C50 27.2053 50.4197 27.625 50.9375 27.625C51.4553 27.625 51.875 27.2053 51.875 26.6875V25.75H53.75V26.6875C53.75 27.2053 54.1697 27.625 54.6875 27.625C55.2053 27.625 55.625 27.2053 55.625 26.6875V25.75H57.5V26.6875C57.5 27.2053 57.9197 27.625 58.4375 27.625C58.9553 27.625 59.375 27.2053 59.375 26.6875V25.75H61.25V26.6875C61.25 27.2053 61.6697 27.625 62.1875 27.625C62.7053 27.625 63.125 27.2053 63.125 26.6875V25.75H65V26.6875C65 27.2053 65.4197 27.625 65.9375 27.625C66.4553 27.625 66.875 27.2053 66.875 26.6875V25.75H68.75V26.6875C68.75 27.2053 69.1697 27.625 69.6875 27.625C70.2053 27.625 70.625 27.2053 70.625 26.6875V25.75H71.5625C72.08 25.7506 72.4994 26.17 72.5 26.6875V29.5H21.875V26.6875C21.8756 26.17 22.295 25.7506 22.8125 25.75ZM21.875 31.375V69.8125C21.8756 70.33 22.295 70.7494 22.8125 70.75H71.5625C72.08 70.7494 72.4994 70.33 72.5 69.8125V31.375H21.875Z" fill="#008DC8"/>
<path fill-rule="evenodd" clip-rule="evenodd" d="M38.2812 34.1875H43.9062C44.9413 34.1886 45.7801 35.0274 45.7812 36.0625V41.6875C45.7801 42.7226 44.9413 43.5614 43.9062 43.5625H38.2812C37.2462 43.5614 36.4074 42.7226 36.4062 41.6875V36.0625C36.4074 35.0274 37.2462 34.1886 38.2812 34.1875ZM38.2812 36.0625V41.6875H43.9074L43.9063 36.0625H38.2812Z" fill="#008DC8"/>
<path fill-rule="evenodd" clip-rule="evenodd" d="M56.0938 43.5625H50.4688C49.4337 43.5614 48.5949 42.7226 48.5938 41.6875V36.0625C48.5949 35.0274 49.4337 34.1886 50.4688 34.1875H56.0938C57.1288 34.1886 57.9676 35.0274 57.9688 36.0625V41.6875C57.9676 42.7226 57.1288 43.5614 56.0938 43.5625ZM56.0938 36.0625H50.4688V41.6875H56.0949L56.0938 36.0625Z" fill="#008DC8"/>
<path fill-rule="evenodd" clip-rule="evenodd" d="M62.6562 34.1875H68.2812C69.3163 34.1886 70.1551 35.0274 70.1562 36.0625V41.6875C70.1551 42.7226 69.3163 43.5614 68.2812 43.5625H62.6562C61.6212 43.5614 60.7824 42.7226 60.7812 41.6875V36.0625C60.7824 35.0274 61.6212 34.1886 62.6562 34.1875ZM62.6562 36.0625V41.6875H68.2824L68.2813 36.0625H62.6562Z" fill="#008DC8"/>
<path fill-rule="evenodd" clip-rule="evenodd" d="M26.0938 46.375H31.7188C32.7538 46.3761 33.5926 47.2149 33.5938 48.25V53.875C33.5926 54.9101 32.7538 55.7489 31.7188 55.75H26.0938C25.0587 55.7489 24.2199 54.9101 24.2188 53.875V48.25C24.2199 47.2149 25.0587 46.3761 26.0938 46.375ZM26.0938 48.25V53.875H31.7199L31.7187 48.25H26.0938Z" fill="#008DC8"/>
<path fill-rule="evenodd" clip-rule="evenodd" d="M38.2812 46.375H43.9062C44.9413 46.3761 45.7801 47.2149 45.7812 48.25V53.875C45.7801 54.9101 44.9413 55.7489 43.9062 55.75H38.2812C37.2462 55.7489 36.4074 54.9101 36.4062 53.875V48.25C36.4074 47.2149 37.2462 46.3761 38.2812 46.375ZM38.2812 48.25V53.875H43.9074L43.9063 48.25H38.2812Z" fill="#008DC8"/>
<path fill-rule="evenodd" clip-rule="evenodd" d="M62.6562 46.375H68.2812C69.3163 46.3761 70.1551 47.2149 70.1562 48.25V53.875C70.1551 54.9101 69.3163 55.7489 68.2812 55.75H62.6562C61.6212 55.7489 60.7824 54.9101 60.7812 53.875V48.25C60.7824 47.2149 61.6212 46.3761 62.6562 46.375ZM62.6562 48.25V53.875H68.2824L68.2813 48.25H62.6562Z" fill="#008DC8"/>
<path fill-rule="evenodd" clip-rule="evenodd" d="M26.0938 58.5625H31.7188C32.7538 58.5636 33.5926 59.4024 33.5938 60.4375V66.0625C33.5926 67.0976 32.7538 67.9364 31.7188 67.9375H26.0938C25.0587 67.9364 24.2199 67.0976 24.2188 66.0625V60.4375C24.2199 59.4024 25.0587 58.5636 26.0938 58.5625ZM26.0938 60.4375V66.0625H31.7199L31.7187 60.4375H26.0938Z" fill="#008DC8"/>
<path fill-rule="evenodd" clip-rule="evenodd" d="M38.2812 58.5625H43.9062C44.9413 58.5636 45.7801 59.4024 45.7812 60.4375V66.0625C45.7801 67.0976 44.9413 67.9364 43.9062 67.9375H38.2812C37.2462 67.9364 36.4074 67.0976 36.4062 66.0625V60.4375C36.4074 59.4024 37.2462 58.5636 38.2812 58.5625ZM38.2812 60.4375V66.0625H43.9074L43.9063 60.4375H38.2812Z" fill="#008DC8"/>
<path fill-rule="evenodd" clip-rule="evenodd" d="M50.4688 58.5625H56.0938C57.1288 58.5636 57.9676 59.4024 57.9688 60.4375V66.0625C57.9676 67.0976 57.1288 67.9364 56.0938 67.9375H50.4688C49.4337 67.9364 48.5949 67.0976 48.5938 66.0625V60.4375C48.5949 59.4024 49.4337 58.5636 50.4688 58.5625ZM50.4688 60.4375V66.0625H56.0949L56.0938 60.4375H50.4688Z" fill="#008DC8"/>
<path fill-rule="evenodd" clip-rule="evenodd" d="M62.6562 58.5625H68.2812C69.3163 58.5636 70.1551 59.4024 70.1562 60.4375V66.0625C70.1551 67.0976 69.3163 67.9364 68.2812 67.9375H62.6562C61.6212 67.9364 60.7824 67.0976 60.7812 66.0625V60.4375C60.7824 59.4024 61.6212 58.5636 62.6562 58.5625ZM62.6562 60.4375V66.0625H68.2824L68.2813 60.4375H62.6562Z" fill="#008DC8"/>
<path fill-rule="evenodd" clip-rule="evenodd" d="M33.5938 36.0625V37.9525V41.6875C33.5926 42.7226 32.7538 43.5614 31.7188 43.5625H26.0938C25.0587 43.5614 24.2199 42.7226 24.2188 41.6875V36.0625C24.2199 35.0274 25.0587 34.1886 26.0938 34.1875H31.7188C32.7538 34.1886 33.5926 35.0274 33.5938 36.0625ZM26.0938 36.0625V41.6875H31.7199L31.7194 39.3252L29.5123 40.2135C29.0772 40.3886 28.5796 40.2151 28.3476 39.8075L27.6227 38.534C27.3666 38.084 27.5238 37.5115 27.9738 37.2554C28.4238 36.9993 28.9962 37.1565 29.2523 37.6065L29.5721 38.1682L31.719 37.3041L31.7187 36.0625H26.0938Z" fill="#008DC8"/>
<path fill-rule="evenodd" clip-rule="evenodd" d="M57.9688 48.25V50.14V53.875C57.9676 54.9101 57.1288 55.7489 56.0938 55.75H50.4688C49.4337 55.7489 48.5949 54.9101 48.5938 53.875V48.25C48.5949 47.2149 49.4337 46.3761 50.4688 46.375H56.0938C57.1288 46.3761 57.9676 47.2149 57.9688 48.25ZM50.4688 48.25V53.875H56.0949L56.0944 51.5127L53.8873 52.401C53.4522 52.5761 52.9546 52.4026 52.7226 51.995L51.9977 50.7215C51.7416 50.2715 51.8988 49.699 52.3488 49.4429C52.7988 49.1868 53.3712 49.344 53.6273 49.794L53.9471 50.3557L56.094 49.4916L56.0938 48.25H50.4688Z" fill="#008DC8"/>
</svg>
