<svg width="100" height="100" viewBox="0 0 100 100" fill="none" xmlns="http://www.w3.org/2000/svg">
<rect width="100" height="100" rx="8" fill="#E0EDF5"/>
<g clip-path="url(#clip0_332_657)">
<path fill-rule="evenodd" clip-rule="evenodd" d="M26.9946 42.0061C26.9946 42.558 27.442 43.0053 27.9939 43.0053H33.9894C34.5413 43.0053 34.9886 42.5579 34.9886 42.0061C34.9886 41.4543 34.5412 41.0068 33.9894 41.0068H27.994C27.442 41.0067 26.9946 41.4542 26.9946 42.0061Z" fill="#008DC8"/>
<path fill-rule="evenodd" clip-rule="evenodd" d="M36.9873 42.0061C36.9873 42.558 37.4347 43.0053 37.9865 43.0053H59.9701C60.522 43.0053 60.9693 42.5579 60.9693 42.0061C60.9693 41.4543 60.5219 41.0068 59.9701 41.0068H37.9865C37.4346 41.0067 36.9873 41.4542 36.9873 42.0061Z" fill="#008DC8"/>
<path fill-rule="evenodd" clip-rule="evenodd" d="M59.9699 47.002H27.9939C27.4419 47.002 26.9946 47.4494 26.9946 48.0012C26.9946 48.553 27.442 49.0004 27.9939 49.0004H59.97C60.5219 49.0004 60.9693 48.553 60.9693 48.0012C60.9693 47.4494 60.5218 47.002 59.9699 47.002Z" fill="#008DC8"/>
<path fill-rule="evenodd" clip-rule="evenodd" d="M27.9939 52.9976C27.4419 52.9976 26.9946 53.445 26.9946 53.9968C26.9946 54.5487 27.442 54.996 27.9939 54.996H38.9857C39.5376 54.996 39.9849 54.5486 39.9849 53.9968C39.9849 53.4449 39.5375 52.9976 38.9857 52.9976H27.9939Z" fill="#008DC8"/>
<path fill-rule="evenodd" clip-rule="evenodd" d="M47.9789 58.9932H27.9939C27.4419 58.9932 26.9946 59.4406 26.9946 59.9924C26.9946 60.5442 27.442 60.9916 27.9939 60.9916H47.979C48.5309 60.9916 48.9782 60.5442 48.9782 59.9924C48.9782 59.4406 48.5308 58.9932 47.9789 58.9932Z" fill="#008DC8"/>
<path d="M67.9642 52.1584V29.0157C67.9609 26.2576 65.7259 24.0226 62.9679 24.0193H59.9702V21.0217C59.9702 20.4698 59.5228 20.0225 58.971 20.0225C58.4191 20.0225 57.9717 20.4699 57.9717 21.0217V24.0194H49.9777V21.0217C49.9777 20.4698 49.5302 20.0225 48.9784 20.0225C48.4266 20.0225 47.9792 20.4699 47.9792 21.0217V24.0194H39.9851V21.0217C39.9851 20.4698 39.5377 20.0225 38.9859 20.0225C38.434 20.0225 37.9867 20.4699 37.9867 21.0217V24.0194H29.9925V21.0217C29.9925 20.4698 29.5451 20.0225 28.9933 20.0225C28.4415 20.0225 27.9941 20.4699 27.9941 21.0217V24.0194H24.9963C22.2383 24.0227 20.0033 26.2576 20 29.0157V74.9814C20.0033 77.7394 22.2383 79.9744 24.9963 79.9777H62.968C63.3445 79.9755 63.7192 79.9278 64.0842 79.8358C71.7272 80.9073 78.7915 75.5801 79.863 67.9371C80.9343 60.2943 75.6072 53.2299 67.9642 52.1584ZM24.9963 77.9792C23.3407 77.9792 21.9985 76.6371 21.9985 74.9815V37.0097C22.5504 37.0097 22.9978 36.5623 22.9978 36.0105C22.9978 35.4587 22.5503 35.0113 21.9985 35.0113V29.0157C21.9985 27.3601 23.3407 26.0179 24.9963 26.0179H27.9941V27.201C26.6175 27.6877 25.7919 29.0952 26.0387 30.5342C26.2856 31.9732 27.5333 33.025 28.9933 33.025C30.4533 33.025 31.701 31.9732 31.9479 30.5342C32.1947 29.0951 31.3691 27.6876 29.9925 27.201V26.0179H37.9866V27.201C36.61 27.6877 35.7844 29.0952 36.0312 30.5342C36.2781 31.9732 37.5258 33.025 38.9858 33.025C40.4459 33.025 41.6935 31.9732 41.9404 30.5342C42.1872 29.0951 41.3616 27.6876 39.985 27.201V26.0179H47.9791V27.201C46.6026 27.6877 45.7769 29.0952 46.0238 30.5342C46.2706 31.9732 47.5183 33.025 48.9783 33.025C50.4384 33.025 51.686 31.9732 51.9329 30.5342C52.1798 29.0951 51.3541 27.6876 49.9776 27.201V26.0179H57.9716V27.201C56.5951 27.6877 55.7694 29.0952 56.0163 30.5342C56.2631 31.9732 57.5108 33.025 58.9709 33.025C60.4309 33.025 61.6786 31.9732 61.9254 30.5342C62.1723 29.0951 61.3466 27.6876 59.9701 27.201V26.0179H62.9678C64.6234 26.0179 65.9656 27.3601 65.9656 29.0157V35.0112C65.4137 35.0112 64.9664 35.4586 64.9664 36.0104C64.9664 36.5622 65.4138 37.0096 65.9656 37.0096V51.9985C59.6737 51.9924 54.1534 56.1915 52.4799 62.2567C50.8064 68.322 53.3921 74.7578 58.797 77.979H24.9963V77.9792ZM28.9933 29.0157C29.5452 29.0157 29.9925 29.4631 29.9925 30.0149C29.9925 30.5668 29.5451 31.0141 28.9933 31.0141C28.4415 31.0141 27.9941 30.5667 27.9941 30.0149C27.9941 29.4631 28.4414 29.0157 28.9933 29.0157ZM38.9858 29.0157C39.5377 29.0157 39.985 29.4631 39.985 30.0149C39.985 30.5668 39.5376 31.0141 38.9858 31.0141C38.4339 31.0141 37.9866 30.5667 37.9866 30.0149C37.9866 29.4631 38.434 29.0157 38.9858 29.0157ZM48.9784 29.0157C49.5303 29.0157 49.9777 29.4631 49.9777 30.0149C49.9777 30.5668 49.5302 31.0141 48.9784 31.0141C48.4266 31.0141 47.9792 30.5667 47.9792 30.0149C47.9791 29.4631 48.4265 29.0157 48.9784 29.0157ZM58.971 29.0157C59.5229 29.0157 59.9702 29.4631 59.9702 30.0149C59.9702 30.5668 59.5228 31.0141 58.971 31.0141C58.4191 31.0141 57.9717 30.5667 57.9717 30.0149C57.9717 29.4631 58.419 29.0157 58.971 29.0157ZM65.9657 77.9792C59.3432 77.9792 53.9746 72.6107 53.9746 65.9882C53.9746 59.3657 59.3432 53.9971 65.9657 53.9971C72.5882 53.9971 77.9568 59.3657 77.9568 65.9882C77.9497 72.6077 72.5852 77.972 65.9657 77.9792Z" fill="#008DC8"/>
<path d="M65.966 62.9907C64.3104 62.9907 62.9683 64.3329 62.9683 65.9885V72.9832C62.9683 74.6389 64.3104 75.981 65.966 75.981C67.6216 75.981 68.9638 74.6389 68.9638 72.9832V65.9885C68.9638 64.3328 67.6217 62.9907 65.966 62.9907ZM66.9654 72.9832C66.9654 73.5351 66.5179 73.9825 65.9661 73.9825C65.4143 73.9825 64.9669 73.535 64.9669 72.9832V65.9885C64.9669 65.4366 65.4143 64.9893 65.9661 64.9893C66.5179 64.9893 66.9654 65.4367 66.9654 65.9885V72.9832Z" fill="#008DC8"/>
<path fill-rule="evenodd" clip-rule="evenodd" d="M27.9938 36.0105C27.9938 35.4585 27.5463 35.0112 26.9945 35.0112H25.9953C25.4434 35.0112 24.9961 35.4586 24.9961 36.0105C24.9961 36.5623 25.4435 37.0097 25.9953 37.0097H26.9945C27.5463 37.0097 27.9938 36.5623 27.9938 36.0105Z" fill="#008DC8"/>
<path fill-rule="evenodd" clip-rule="evenodd" d="M30.9919 37.0097H31.9911C32.543 37.0097 32.9903 36.5623 32.9903 36.0105C32.9903 35.4587 32.5429 35.0112 31.9911 35.0112H30.9919C30.44 35.0112 29.9927 35.4587 29.9927 36.0105C29.9927 36.5623 30.44 37.0097 30.9919 37.0097Z" fill="#008DC8"/>
<path fill-rule="evenodd" clip-rule="evenodd" d="M35.988 37.0097H36.9872C37.5391 37.0097 37.9864 36.5623 37.9864 36.0105C37.9864 35.4587 37.539 35.0112 36.9872 35.0112H35.988C35.4361 35.0112 34.9888 35.4587 34.9888 36.0105C34.9888 36.5623 35.4362 37.0097 35.988 37.0097Z" fill="#008DC8"/>
<path fill-rule="evenodd" clip-rule="evenodd" d="M40.9841 37.0097H41.9833C42.5352 37.0097 42.9825 36.5623 42.9825 36.0105C42.9825 35.4587 42.5351 35.0112 41.9833 35.0112H40.9841C40.4322 35.0112 39.9849 35.4587 39.9849 36.0105C39.9849 36.5623 40.4322 37.0097 40.9841 37.0097Z" fill="#008DC8"/>
<path fill-rule="evenodd" clip-rule="evenodd" d="M45.9802 37.0097H46.9794C47.5313 37.0097 47.9786 36.5623 47.9786 36.0105C47.9786 35.4587 47.5312 35.0112 46.9794 35.0112H45.9802C45.4283 35.0112 44.981 35.4587 44.981 36.0105C44.981 36.5623 45.4283 37.0097 45.9802 37.0097Z" fill="#008DC8"/>
<path fill-rule="evenodd" clip-rule="evenodd" d="M50.9768 37.0097H51.976C52.5279 37.0097 52.9752 36.5623 52.9752 36.0105C52.9752 35.4587 52.5278 35.0112 51.976 35.0112H50.9768C50.4249 35.0112 49.9775 35.4587 49.9775 36.0105C49.9775 36.5623 50.425 37.0097 50.9768 37.0097Z" fill="#008DC8"/>
<path fill-rule="evenodd" clip-rule="evenodd" d="M55.9729 37.0097H56.9721C57.524 37.0097 57.9713 36.5623 57.9713 36.0105C57.9713 35.4587 57.5239 35.0112 56.9721 35.0112H55.9729C55.421 35.0112 54.9736 35.4587 54.9736 36.0105C54.9736 36.5623 55.421 37.0097 55.9729 37.0097Z" fill="#008DC8"/>
<path fill-rule="evenodd" clip-rule="evenodd" d="M60.9689 37.0097H61.9682C62.5201 37.0097 62.9674 36.5623 62.9674 36.0105C62.9674 35.4587 62.52 35.0112 61.9682 35.0112H60.9689C60.417 35.0112 59.9697 35.4587 59.9697 36.0105C59.9697 36.5623 60.417 37.0097 60.9689 37.0097Z" fill="#008DC8"/>
<path d="M65.966 55.9956C64.3104 55.9956 62.9683 57.3378 62.9683 58.9934C62.9683 60.649 64.3104 61.9911 65.966 61.9911C67.6216 61.9911 68.9638 60.649 68.9638 58.9934C68.9638 57.3378 67.6217 55.9956 65.966 55.9956ZM65.966 59.9927C65.4141 59.9927 64.9668 59.5453 64.9668 58.9935C64.9668 58.4417 65.4142 57.9942 65.966 57.9942C66.5178 57.9942 66.9653 58.4417 66.9653 58.9935C66.9653 59.5453 66.5179 59.9927 65.966 59.9927Z" fill="#008DC8"/>
</g>
<defs>
<clipPath id="clip0_332_657">
<rect width="60" height="60" fill="white" transform="translate(20 20)"/>
</clipPath>
</defs>
</svg>
