<svg width="100" height="100" viewBox="0 0 100 100" fill="none" xmlns="http://www.w3.org/2000/svg">
<rect width="100" height="100" rx="8" fill="#E0EDF5"/>
<path fill-rule="evenodd" clip-rule="evenodd" d="M80.4999 39.6583C80.5084 34.9232 78.5841 30.3897 75.172 27.1065C68.2785 20.5494 57.5404 20.2746 50.3205 26.4705C43.0963 20.345 32.4065 20.6873 25.589 27.2625C22.2861 30.5065 20.4487 34.957 20.5011 39.5863C20.5024 44.4896 22.4386 49.1942 25.889 52.678C25.2295 54.581 25.746 56.6938 27.209 58.0779C28.2394 59.0714 29.6175 59.6227 31.0489 59.6139C31.2567 59.6254 31.465 59.6254 31.6729 59.6139C31.414 61.2311 31.9975 62.8688 33.2208 63.9578C34.252 64.9502 35.6296 65.5013 37.0608 65.4938C37.2686 65.5053 37.4769 65.5053 37.6848 65.4938C37.4258 67.111 38.0094 68.7487 39.2327 69.8377C40.2632 70.8312 41.6413 71.3825 43.0727 71.3737C43.2842 71.3218 43.4926 71.2577 43.6966 71.1817C43.6875 71.3616 43.6875 71.5418 43.6966 71.7217C43.7481 73.8757 45.0535 75.801 47.0356 76.646C49.0176 77.491 51.3106 77.0999 52.9005 75.6456L56.5004 72.0457C56.9177 71.6299 57.2624 71.1472 57.5204 70.6177C59.3778 71.1067 61.3558 70.5929 62.7403 69.2617C63.9558 68.1776 64.5386 66.5511 64.2883 64.9418H64.7562C66.1983 64.9453 67.5848 64.3856 68.6202 63.3818C69.8491 62.2715 70.428 60.6117 70.1561 58.9779C71.8257 59.2459 73.5215 58.6866 74.7041 57.4779C76.3304 55.9263 76.7714 53.5033 75.796 51.4781C78.8049 48.2764 80.4861 44.0519 80.4999 39.6583ZM28.901 56.3502C28.3453 55.8122 28.0315 55.0718 28.0315 54.2983C28.0315 53.5247 28.3453 52.7843 28.901 52.2463L32.5009 48.6464C33.7121 47.4868 35.6217 47.4868 36.8329 48.6464C37.3886 49.1844 37.7024 49.9248 37.7024 50.6983C37.7024 51.4718 37.3886 52.2123 36.8329 52.7503L33.2329 56.3502C32.0218 57.5098 30.1122 57.5098 28.901 56.3502ZM34.0314 60.1299C34.0314 60.9035 34.3451 61.6439 34.9009 62.1819C36.1121 63.3415 38.0217 63.3415 39.2328 62.1819L42.8328 58.582C43.3885 58.044 43.7023 57.3035 43.7023 56.53C43.7023 55.7565 43.3885 55.0161 42.8328 54.478C41.6241 53.3122 39.7095 53.3122 38.5008 54.478L34.9009 58.078C34.3451 58.616 34.0314 59.3564 34.0314 60.1299ZM45.2327 68.0137C44.0215 69.1733 42.1119 69.1733 40.9008 68.0137C40.345 67.4757 40.0313 66.7352 40.0313 65.9617C40.0313 65.1882 40.345 64.4478 40.9008 63.9097L44.5007 60.3098C45.7119 59.1502 47.6215 59.1502 48.8326 60.3098C49.3884 60.8478 49.7022 61.5883 49.7022 62.3618C49.7022 63.1353 49.3884 63.8757 48.8326 64.4137L45.2327 68.0137ZM51.3524 74.0134L54.9524 70.4135L54.9284 70.3775C55.5002 69.8344 55.8219 69.079 55.8174 68.2903C55.8128 67.5017 55.4824 66.7501 54.9044 66.2136C53.6833 65.0362 51.7593 65.0048 50.5005 66.1416L46.9005 69.7415C46.3504 70.3022 46.0628 71.0693 46.1085 71.8535C46.111 72.6665 46.4396 73.4446 47.0205 74.0134C48.2317 75.173 50.1413 75.173 51.3524 74.0134ZM72.9881 55.834C71.7866 56.983 69.8937 56.983 68.6922 55.834C68.571 55.722 68.428 55.6363 68.2722 55.582L60.1844 47.7222C59.7026 47.3202 58.9925 47.3573 58.5552 47.8072C58.1178 48.2571 58.1009 48.968 58.5164 49.4382L66.9162 57.622C67.4783 58.1566 67.7964 58.8983 67.7964 59.674C67.7964 60.4496 67.4783 61.1913 66.9162 61.7259C65.8462 62.7467 64.2051 62.8722 62.9923 62.0259C62.9595 61.9884 62.9285 61.9491 62.8972 61.9094L62.8972 61.9093C62.8484 61.8474 62.7988 61.7844 62.7403 61.7259L54.3405 53.5421C54.0422 53.2045 53.58 53.0624 53.1436 53.1742C52.7072 53.2859 52.3701 53.6327 52.2708 54.0721C52.1715 54.5114 52.3266 54.9694 52.6725 55.258L60.7243 63.0819C60.7855 63.2164 60.8709 63.3384 60.9763 63.4419C61.0708 63.5364 61.1728 63.6086 61.2763 63.6818L61.2769 63.6822C61.3046 63.7019 61.3325 63.7216 61.3603 63.7419C61.7544 64.2364 61.9701 64.8495 61.9723 65.4818C61.9683 66.282 61.6288 67.0439 61.0363 67.5818C60.2813 68.2973 59.2174 68.5858 58.2044 68.3498C58.2093 66.9251 57.6329 65.56 56.6084 64.5699C55.3928 63.4226 53.7334 62.8694 52.0725 63.0579C52.3517 61.4127 51.7565 59.7406 50.5005 58.642C49.3137 57.5053 47.6804 56.9594 46.0486 57.154C46.3076 55.5368 45.724 53.8991 44.5007 52.8101C43.3138 51.6734 41.6805 51.1276 40.0487 51.3221C40.3077 49.7049 39.7241 48.0672 38.5008 46.9782C36.3569 44.9256 32.9768 44.9256 30.8329 46.9782L27.233 50.5781C24.4578 47.5895 22.911 43.6647 22.9011 39.5863C22.8519 35.6032 24.4294 31.7722 27.269 28.9785C33.1211 23.3424 42.2612 22.9663 48.5566 28.1026L41.2367 35.3024C40.1263 36.2344 39.4674 37.5967 39.4261 39.0459C39.3848 40.495 39.9651 41.8926 41.0207 42.8863C43.1565 44.9358 46.5288 44.9358 48.6646 42.8863L56.5004 35.2664L64.9003 43.6663L73.0241 51.7301C73.5815 52.2696 73.8931 53.0141 73.8863 53.7898C73.8795 54.5655 73.5549 55.3044 72.9881 55.834ZM66.5802 41.9501L74.308 49.5819C79.6386 43.5619 79.2843 34.412 73.5041 28.8223C67.2151 22.8991 57.3771 22.9784 51.1845 29.0023L42.8686 37.1021C42.2466 37.6067 41.8709 38.3539 41.8367 39.1541C41.8187 39.9147 42.124 40.6472 42.6767 41.1701C43.8813 42.3344 45.792 42.3344 46.9966 41.1701L55.6724 32.7702C55.7317 32.7197 55.796 32.6755 55.8644 32.6382C55.9245 32.5923 55.9888 32.5521 56.0564 32.5182C56.1322 32.511 56.2086 32.511 56.2844 32.5182C56.4312 32.4619 56.5936 32.4619 56.7404 32.5182C56.8083 32.5124 56.8765 32.5124 56.9444 32.5182C57.0214 32.5583 57.0938 32.6066 57.1604 32.6622C57.2239 32.6967 57.2841 32.7369 57.3404 32.7822L66.5802 41.9501Z" fill="#008DC8"/>
</svg>
