<svg width="100" height="100" viewBox="0 0 100 100" fill="none" xmlns="http://www.w3.org/2000/svg">
<rect width="100" height="100" rx="8" fill="#E0EDF5"/>
<path fill-rule="evenodd" clip-rule="evenodd" d="M74.4186 23.3291C77.4866 23.3291 80 25.8425 80 28.9105V56.8175C80 59.8854 77.4866 62.3989 74.4186 62.3989H69.6875L70.952 74.8044C71.0043 75.3838 70.6917 75.9348 70.1676 76.1872C69.6434 76.4396 69.0177 76.3403 68.5974 75.9381L55.0145 62.3989H48.6047V64.5355C48.6047 66.812 46.718 68.678 44.4404 68.678H33.9535L26.5625 75.9381C26.1295 76.3669 25.4682 76.4652 24.9292 76.1807C24.3902 75.8962 24.0982 75.2949 24.2078 74.6954L25.2762 68.678H24.1642C21.8867 68.678 20 66.812 20 64.5355V51.1925C20 48.916 21.8867 47.05 24.1642 47.05H28.3721V28.9105C28.3721 25.8425 30.8855 23.3291 33.9535 23.3291H74.4186ZM74.4186 26.1198H33.9535C32.3833 26.1198 31.1628 27.3403 31.1628 28.9105V56.8175C31.1628 58.3877 32.3833 59.6082 33.9535 59.6082H55.5814C55.9472 59.6053 56.2995 59.7463 56.5625 60.0006L67.7907 71.1852L66.7442 61.1343C66.7073 60.7422 66.8378 60.3527 67.1036 60.062C67.3694 59.7713 67.7457 59.6065 68.1395 59.6082H74.4186C75.9888 59.6082 77.2093 58.3877 77.2093 56.8175V28.9105C77.2093 27.3403 75.9888 26.1198 74.4186 26.1198ZM24.1642 49.8407H28.3721V56.8175C28.3721 59.8854 30.8855 62.3989 33.9535 62.3989H45.814V64.5355C45.814 65.2978 45.2273 65.8873 44.4404 65.8873H33.3866C33.0208 65.8844 32.6685 66.0253 32.4055 66.2797L27.718 70.9018L28.3067 67.5224C28.3774 67.1167 28.2653 66.7005 28.0005 66.3852C27.7356 66.0698 27.345 65.8876 26.9331 65.8873H24.1642C23.3774 65.8873 22.7907 65.2978 22.7907 64.5355V51.1925C22.7907 50.4302 23.3774 49.8407 24.1642 49.8407Z" fill="#008DC8"/>
</svg>
