<svg width="100" height="100" viewBox="0 0 100 100" fill="none" xmlns="http://www.w3.org/2000/svg">
<rect width="100" height="100" rx="8" fill="#E0EDF5"/>
<path fill-rule="evenodd" clip-rule="evenodd" d="M37.8509 72.1323H62.1458L62.1603 72.1328C63.0292 72.1596 63.8504 72.5326 64.4449 73.1673C65.0361 73.7986 65.3555 74.6376 65.3368 75.5023V78.8502H34.66V75.5023C34.6412 74.6376 34.9607 73.7986 35.5519 73.1673C36.1464 72.5326 36.9675 72.1596 37.8364 72.1328L37.8509 72.1323ZM37.8817 74.0073C37.5184 74.0219 37.173 74.1793 36.9204 74.4491C36.6646 74.7222 36.525 75.0882 36.5347 75.4673L36.5353 75.4913L36.535 76.9752H63.4618V75.4673C63.4715 75.0882 63.3322 74.7222 63.0764 74.4491C62.8237 74.1793 62.4784 74.0219 62.115 74.0073H37.8817Z" fill="#008DC8"/>
<path fill-rule="evenodd" clip-rule="evenodd" d="M22.3987 23.147C22.3315 23.147 22.2652 23.1738 22.2151 23.2245C22.1646 23.2754 22.1348 23.3462 22.1348 23.4219V67.0148C22.1348 67.0904 22.1646 67.1613 22.2151 67.2122C22.2652 67.2628 22.3315 67.2897 22.3987 67.2897H77.6028C77.67 67.2897 77.7363 67.2628 77.7864 67.2122C77.8369 67.1613 77.8667 67.0904 77.8667 67.0148V23.4219C77.8667 23.3462 77.8369 23.2754 77.7864 23.2245C77.7363 23.1738 77.67 23.147 77.6028 23.147H22.3987ZM20.8833 21.9047C21.2837 21.5006 21.8287 21.272 22.3987 21.272H77.6028C78.1728 21.272 78.7178 21.5006 79.1183 21.9047C79.5184 22.3085 79.7417 22.8544 79.7417 23.4219V67.0148C79.7417 67.5822 79.5184 68.1282 79.1183 68.532C78.7178 68.9361 78.1728 69.1647 77.6028 69.1647H22.3987C21.8287 69.1647 21.2837 68.9361 20.8833 68.532C20.4831 68.1282 20.2598 67.5822 20.2598 67.0148V23.4219C20.2598 22.8544 20.4831 22.3085 20.8833 21.9047ZM27.1979 27.9899C27.1307 27.9899 27.0645 28.0168 27.0143 28.0674C26.9638 28.1183 26.934 28.1891 26.934 28.2648V57.319C26.934 57.3946 26.9638 57.4655 27.0143 57.5164C27.0645 57.567 27.1307 57.5939 27.1979 57.5939C27.2438 57.5939 27.2894 57.5972 27.3343 57.6038H72.8003C72.8675 57.6038 72.9338 57.577 72.9839 57.5263C73.0344 57.4754 73.0642 57.4046 73.0642 57.3289V28.2648C73.0642 28.1891 73.0344 28.1183 72.9839 28.0674C72.9338 28.0168 72.8675 27.9899 72.8003 27.9899H27.1979ZM27.015 59.461C27.0742 59.4727 27.1353 59.4788 27.1979 59.4788H72.8003C73.3703 59.4788 73.9153 59.2502 74.3158 58.8461C74.7159 58.4423 74.9392 57.8964 74.9392 57.3289V28.2648C74.9392 27.6973 74.7159 27.1514 74.3158 26.7476C73.9153 26.3435 73.3703 26.1149 72.8003 26.1149H27.1979C26.6279 26.1149 26.0829 26.3435 25.6825 26.7476C25.2823 27.1514 25.059 27.6973 25.059 28.2648V57.319C25.059 57.8864 25.2823 58.4323 25.6825 58.8362C26.0399 59.1968 26.5123 59.4177 27.015 59.461Z" fill="#008DC8"/>
<path fill-rule="evenodd" clip-rule="evenodd" d="M43.9995 67.29C44.5173 67.29 44.937 67.7098 44.937 68.2275V73.0705C44.937 73.5882 44.5173 74.008 43.9995 74.008C43.4817 74.008 43.062 73.5882 43.062 73.0705V68.2275C43.062 67.7098 43.4817 67.29 43.9995 67.29ZM55.0633 73.0705V68.2275H56.9383V73.0705H55.0633Z" fill="#008DC8"/>
<path fill-rule="evenodd" clip-rule="evenodd" d="M32.1875 32.25C32.1875 31.7322 32.6072 31.3125 33.125 31.3125H42.5C43.0178 31.3125 43.4375 31.7322 43.4375 32.25V41.625C43.4375 42.1428 43.0178 42.5625 42.5 42.5625H33.125C32.6072 42.5625 32.1875 42.1428 32.1875 41.625V32.25ZM34.0625 33.1875V40.6875H41.5625V33.1875H34.0625Z" fill="#008DC8"/>
<path fill-rule="evenodd" clip-rule="evenodd" d="M45.3125 32.25C45.3125 31.7322 45.7322 31.3125 46.25 31.3125H68.75C69.2678 31.3125 69.6875 31.7322 69.6875 32.25V54.75C69.6875 55.2678 69.2678 55.6875 68.75 55.6875H46.25C45.7322 55.6875 45.3125 55.2678 45.3125 54.75V32.25ZM47.1875 33.1875V53.8125H67.8125V33.1875H47.1875Z" fill="#008DC8"/>
<path fill-rule="evenodd" clip-rule="evenodd" d="M32.1875 45.375C32.1875 44.8572 32.6072 44.4375 33.125 44.4375H42.5C43.0178 44.4375 43.4375 44.8572 43.4375 45.375V54.75C43.4375 55.2678 43.0178 55.6875 42.5 55.6875H33.125C32.6072 55.6875 32.1875 55.2678 32.1875 54.75V45.375ZM34.0625 46.3125V53.8125H41.5625V46.3125H34.0625Z" fill="#008DC8"/>
</svg>
