<svg width="100" height="100" viewBox="0 0 100 100" fill="none" xmlns="http://www.w3.org/2000/svg">
<rect width="100" height="100" rx="8" fill="#E0EDF5"/>
<path d="M77.4494 22H35.539C34.131 22.0016 32.99 23.1426 32.9884 24.5506V36.1105L31.0719 33.2358C30.1947 31.9125 28.4304 31.5155 27.071 32.3356L23.128 34.7062C21.8368 35.4639 20.8895 36.6925 20.4854 38.134C19.047 43.3714 20.1143 52.3946 33.3586 65.6409C43.8911 76.1625 51.744 78.9962 57.1564 78.9962C58.4094 79.002 59.6576 78.8391 60.8673 78.5121C62.3083 78.108 63.5369 77.162 64.2961 75.8725L66.6637 71.9255C67.4804 70.5671 67.0838 68.8065 65.7635 67.9294L56.3221 61.6359C55.027 60.7792 53.291 61.0609 52.3331 62.283L49.5844 65.8169C49.2971 66.195 48.776 66.3052 48.3601 66.0759L47.8369 65.7878C46.1155 64.8496 43.973 63.6813 39.646 59.3542C39.1778 58.8861 38.7537 58.448 38.3556 58.0289H77.4494C78.8539 58.0299 79.9945 56.8947 80 55.4902V24.5506C79.9984 23.1426 78.8574 22.0016 77.4494 22ZM46.8797 67.5444L47.3879 67.8235C48.6652 68.5377 50.2731 68.2063 51.1638 67.0453L53.9125 63.5114C54.225 63.1134 54.7905 63.0216 55.2128 63.3003L64.6541 69.5939C65.083 69.8798 65.212 70.4521 64.9472 70.8942L62.5796 74.8412C62.0852 75.6891 61.2819 76.3127 60.3381 76.5817C55.6099 77.882 47.3349 76.7818 34.7757 64.2217C22.2166 51.6615 21.1205 43.3873 22.4177 38.6632C22.6865 37.7194 23.3097 36.9163 24.1571 36.4216L28.1041 34.053C28.5464 33.7888 29.1183 33.9176 29.4044 34.3461L35.7009 43.7874C35.9801 44.2096 35.8883 44.7755 35.4898 45.0877L31.9549 47.8374C30.7941 48.7278 30.4626 50.3354 31.1767 51.6123L31.4567 52.1204C32.4569 53.9549 33.7003 56.2374 38.2324 60.7686C42.7647 65.2998 45.0464 66.5441 46.8797 67.5444ZM77.9996 55.4903C77.9963 55.7912 77.7503 56.0327 77.4495 56.0304H36.5512C35.2521 54.5448 34.1319 52.912 33.2133 51.1652L32.9252 50.6401C32.6955 50.2252 32.8054 49.7045 33.1833 49.4178L36.7182 46.6681C37.9408 45.7105 38.2225 43.9742 37.3654 42.6791L34.9888 39.1122V24.5506C34.9872 24.4042 35.0446 24.2633 35.1481 24.1598C35.2516 24.0563 35.3925 23.9989 35.5389 24.0005H77.4494C77.5958 23.9989 77.7367 24.0563 77.8402 24.1598C77.9437 24.2633 78.0011 24.4042 77.9995 24.5506V55.4903H77.9996Z" fill="#008DC8"/>
<path d="M74.0046 26.6316L57.2874 39.3098C56.8144 39.6535 56.1739 39.6535 55.7009 39.3098L38.99 26.6316C38.5497 26.2977 37.922 26.3839 37.5882 26.8242C37.2542 27.2645 37.3405 27.8922 37.7808 28.226L54.4939 40.9031C55.6829 41.7815 57.3058 41.7815 58.4948 40.9031L75.2129 28.226C75.4245 28.0657 75.5637 27.8277 75.5996 27.5647C75.6356 27.3016 75.5656 27.0351 75.4049 26.8237C75.0711 26.3843 74.4445 26.2984 74.0046 26.6316Z" fill="#008DC8"/>
<path d="M47.9585 40.9867L37.712 51.9595C37.3353 52.3635 37.3575 52.9966 37.7615 53.3734C38.1655 53.7501 38.7986 53.7279 39.1754 53.3239L49.422 42.3462C49.7605 41.9378 49.7212 41.3362 49.3326 40.975C48.944 40.6139 48.341 40.619 47.9585 40.9867Z" fill="#008DC8"/>
<path d="M65.0973 40.9871C64.7206 40.5831 64.0876 40.5608 63.6834 40.9377C63.2794 41.3144 63.2571 41.9474 63.634 42.3515L73.8775 53.3243C74.2543 53.7284 74.8872 53.7506 75.2914 53.3738C75.6955 52.997 75.7177 52.3641 75.3409 51.9599L65.0973 40.9871Z" fill="#008DC8"/>
</svg>
