<svg width="100" height="100" viewBox="0 0 100 100" fill="none" xmlns="http://www.w3.org/2000/svg">
<rect width="100" height="100" rx="8" fill="#E0EDF5"/>
<path d="M36.3056 42.9893C34.0084 42.9892 31.7628 43.6703 29.8527 44.9465C27.9426 46.2226 26.4538 48.0366 25.5747 50.1589C24.6955 52.2812 24.4654 54.6165 24.9136 56.8696C25.3617 59.1226 26.4678 61.1922 28.0921 62.8166C29.7165 64.441 31.786 65.5472 34.039 65.9954C36.2921 66.4436 38.6274 66.2136 40.7498 65.3346C42.8721 64.4555 44.6861 62.9668 45.9624 61.0568C47.2386 59.1467 47.9198 56.9011 47.9198 54.6039C47.9163 51.5247 46.6916 48.5725 44.5143 46.3951C42.337 44.2177 39.3849 42.9929 36.3056 42.9893ZM29.8387 62.1827C29.8685 61.1903 30.2833 60.2485 30.9953 59.5565C31.7073 58.8646 32.6606 58.4769 33.6534 58.4754H38.9578C39.9506 58.4767 40.904 58.8644 41.616 59.5564C42.328 60.2484 42.7428 61.1903 42.7725 62.1827C40.9724 63.7283 38.6782 64.578 36.3056 64.578C33.933 64.578 31.6388 63.7283 29.8387 62.1827ZM44.1825 60.7024C43.8398 59.5836 43.1474 58.6043 42.207 57.908C41.2667 57.2118 40.1278 56.8355 38.9578 56.8343H33.6534C32.4838 56.8359 31.3454 57.2124 30.4055 57.9085C29.4655 58.6046 28.7733 59.5836 28.4306 60.7019C27.2851 59.2279 26.5762 57.4621 26.3846 55.6052C26.1931 53.7483 26.5265 51.8749 27.347 50.1981C28.1675 48.5213 29.4421 47.1085 31.0258 46.1202C32.6095 45.132 34.4388 44.6081 36.3056 44.6081C38.1724 44.6081 40.0016 45.132 41.5854 46.1202C43.1691 47.1085 44.4437 48.5213 45.2642 50.1981C46.0847 51.8749 46.4181 53.7483 46.2265 55.6052C46.035 57.4621 45.3261 59.2279 44.1806 60.7019L44.1825 60.7024Z" fill="#008DC8"/>
<path d="M36.3055 46.8652C35.3628 46.8661 34.4591 47.2409 33.7925 47.9074C33.1259 48.5739 32.751 49.4776 32.75 50.4202V51.4984C32.7607 52.4342 33.14 53.3281 33.8056 53.986C34.4712 54.644 35.3693 55.013 36.3052 55.013C37.2411 55.013 38.1393 54.644 38.8049 53.986C39.4704 53.3281 39.8497 52.4342 39.8605 51.4984V50.4202C39.8594 49.4777 39.4844 48.5742 38.818 47.9077C38.1515 47.2413 37.248 46.8664 36.3055 46.8652ZM38.2203 51.4979C38.2124 52.0005 38.0073 52.4798 37.6491 52.8325C37.2909 53.1851 36.8084 53.3828 36.3057 53.3828C35.803 53.3828 35.3205 53.1851 34.9623 52.8325C34.6041 52.4798 34.399 52.0005 34.3911 51.4979V50.4198C34.399 49.9172 34.6041 49.4378 34.9623 49.0852C35.3205 48.7325 35.803 48.5349 36.3057 48.5349C36.8084 48.5349 37.2909 48.7325 37.6491 49.0852C38.0073 49.4378 38.2124 49.9172 38.2203 50.4198V51.4979Z" fill="#008DC8"/>
<path d="M79.1797 32.8047H61.1619V32.1016C61.1606 31.0141 60.7281 29.9716 59.9592 29.2027C59.1903 28.4338 58.1477 28.0012 57.0603 28H42.9392C41.8518 28.0012 40.8093 28.4338 40.0403 29.2027C39.2714 29.9716 38.8389 31.0141 38.8377 32.1016V32.8047H20.8203C20.6028 32.8047 20.3941 32.8911 20.2403 33.045C20.0864 33.1988 20 33.4074 20 33.625V70.8878C20 71.1054 20.0864 71.314 20.2403 71.4679C20.3941 71.6217 20.6028 71.7081 20.8203 71.7081H79.1797C79.3972 71.7081 79.6059 71.6217 79.7597 71.4679C79.9136 71.314 80 71.1054 80 70.8878V33.625C80 33.4074 79.9136 33.1988 79.7597 33.045C79.6059 32.8911 79.3972 32.8047 79.1797 32.8047ZM40.4783 32.1016C40.479 31.4491 40.7385 30.8236 41.1999 30.3622C41.6612 29.9009 42.2868 29.6414 42.9392 29.6406H57.0603C57.7128 29.6414 58.3383 29.9009 58.7996 30.3622C59.261 30.8236 59.5205 31.4491 59.5212 32.1016V36.6953H40.4783V32.1016ZM78.3594 70.0675H21.6406V34.4453H38.8377V37.5175C38.8378 37.735 38.9242 37.9436 39.0781 38.0974C39.2319 38.2512 39.4404 38.3377 39.658 38.3378H60.3416C60.5591 38.3378 60.7678 38.2514 60.9216 38.0975C61.0755 37.9437 61.1619 37.7351 61.1619 37.5175V34.4453H78.3594V70.0675Z" fill="#008DC8"/>
<path d="M51.4648 45.0381C51.465 45.2556 51.5514 45.4642 51.7052 45.618C51.8591 45.7718 52.0676 45.8583 52.2852 45.8584H74.4884C74.706 45.8584 74.9146 45.772 75.0685 45.6181C75.2223 45.4643 75.3087 45.2556 75.3087 45.0381C75.3087 44.8205 75.2223 44.6119 75.0685 44.458C74.9146 44.3042 74.706 44.2178 74.4884 44.2178H52.2852C52.0676 44.2178 51.8589 44.3042 51.7051 44.458C51.5513 44.6119 51.4648 44.8205 51.4648 45.0381Z" fill="#008DC8"/>
<path d="M52.2852 50.6406H70.6836C70.9012 50.6406 71.1098 50.5542 71.2636 50.4004C71.4175 50.2465 71.5039 50.0379 71.5039 49.8203C71.5039 49.6028 71.4175 49.3941 71.2636 49.2403C71.1098 49.0864 70.9012 49 70.6836 49H52.2852C52.0676 49 51.8589 49.0864 51.7051 49.2403C51.5513 49.3941 51.4648 49.6028 51.4648 49.8203C51.4648 50.0379 51.5513 50.2465 51.7051 50.4004C51.8589 50.5542 52.0676 50.6406 52.2852 50.6406Z" fill="#008DC8"/>
<path d="M74.4884 53.7827H52.2852C52.0676 53.7827 51.8589 53.8691 51.7051 54.023C51.5513 54.1768 51.4648 54.3855 51.4648 54.603C51.4648 54.8206 51.5513 55.0292 51.7051 55.1831C51.8589 55.3369 52.0676 55.4233 52.2852 55.4233H74.4884C74.706 55.4233 74.9146 55.3369 75.0685 55.1831C75.2223 55.0292 75.3087 54.8206 75.3087 54.603C75.3087 54.3855 75.2223 54.1768 75.0685 54.023C74.9146 53.8691 74.706 53.7827 74.4884 53.7827Z" fill="#008DC8"/>
<path d="M52.2852 60.207H70.6836C70.9012 60.207 71.1098 60.1206 71.2636 59.9668C71.4175 59.8129 71.5039 59.6043 71.5039 59.3867C71.5039 59.1692 71.4175 58.9605 71.2636 58.8067C71.1098 58.6528 70.9012 58.5664 70.6836 58.5664H52.2852C52.0676 58.5664 51.8589 58.6528 51.7051 58.8067C51.5513 58.9605 51.4648 59.1692 51.4648 59.3867C51.4648 59.6043 51.5513 59.8129 51.7051 59.9668C51.8589 60.1206 52.0676 60.207 52.2852 60.207Z" fill="#008DC8"/>
<path d="M74.4884 63.3481H52.2852C52.0676 63.3481 51.8589 63.4346 51.7051 63.5884C51.5513 63.7422 51.4648 63.9509 51.4648 64.1685C51.4648 64.386 51.5513 64.5947 51.7051 64.7485C51.8589 64.9023 52.0676 64.9888 52.2852 64.9888H74.4884C74.706 64.9888 74.9146 64.9023 75.0685 64.7485C75.2223 64.5947 75.3087 64.386 75.3087 64.1685C75.3087 63.9509 75.2223 63.7422 75.0685 63.5884C74.9146 63.4346 74.706 63.3481 74.4884 63.3481Z" fill="#008DC8"/>
</svg>
