<svg width="100" height="100" viewBox="0 0 100 100" fill="none" xmlns="http://www.w3.org/2000/svg">
<rect width="100" height="100" rx="8" fill="#E0EDF5"/>
<path fill-rule="evenodd" clip-rule="evenodd" d="M78.9803 55.4468C79.5199 55.7529 79.891 56.2878 79.9885 56.9005C80.0524 57.6252 79.847 58.3481 79.4117 58.931C79.4069 59.445 79.2918 59.9519 79.0741 60.4175C78.2722 62.3026 71.5711 67.611 64.5183 72.23C64.1578 72.672 63.6645 72.986 63.1115 73.1257C57.1513 76.9147 51.1818 80.0237 48.4526 80.0237C43.3131 80.0237 23.016 69.7896 20.6862 68.6148L20.6862 68.6148C20.5968 68.5698 20.5339 68.5381 20.4993 68.5207C20.0548 68.2766 19.8848 67.7233 20.1157 67.2717C20.3465 66.8202 20.8946 66.6339 21.3528 66.8513C27.4911 69.9932 44.3728 78.148 48.4572 78.148C50.5159 78.148 54.9051 75.9721 59.6601 73.121C58.2768 72.8725 56.7621 72.441 55.2662 72.0143C54.0986 71.6288 52.8999 71.3449 51.6835 71.1655C47.8064 71.0314 43.9262 71.3159 40.1102 72.0143C39.7781 72.0897 39.4313 71.9792 39.2041 71.7256C38.9768 71.4719 38.9049 71.1151 39.0162 70.7933C39.1274 70.4714 39.4044 70.2352 39.7397 70.1761C43.7047 69.4285 47.7402 69.1219 51.7726 69.2617C53.1362 69.4442 54.4789 69.7583 55.782 70.1995C57.6906 70.7482 60.9684 71.6814 62.4221 71.3859L63.1349 70.917C63.6929 70.1217 63.8228 69.1023 63.4819 68.1925C62.8114 66.4246 60.5089 65.0178 56.9966 64.2206C55.0174 63.7757 53.008 63.4779 50.9848 63.3296L50.8653 63.3183C49.6606 63.2038 48.2844 63.0731 46.469 62.8325C45.8034 62.7441 45.087 62.3369 44.0034 61.721L43.9789 61.7071C40.0298 59.3655 35.6707 57.7978 31.1348 57.0881C24.7743 55.9976 21.895 57.0617 21.5947 57.1727C21.5786 57.1787 21.5699 57.1819 21.5685 57.1819C21.1018 57.3904 20.5541 57.187 20.3368 56.7243C20.1196 56.2616 20.3128 55.7102 20.7713 55.4843C20.9026 55.4187 24.0726 53.9744 31.449 55.2405C36.2019 55.9915 40.768 57.6419 44.9027 60.1033C45.4688 60.4719 46.0764 60.7726 46.7128 60.999C48.5604 61.2241 49.9438 61.3554 51.1583 61.4679C51.9555 61.543 52.687 61.6133 53.4373 61.7024C54.5865 61.1854 55.7059 60.6046 56.7902 59.9627C60.3823 57.965 63.0318 56.5582 64.4667 56.5582C65.625 56.5582 66.4222 56.8677 66.8489 57.4961C66.8833 57.5489 66.9146 57.6037 66.9427 57.6602C68.2135 56.8864 69.5734 56.0799 70.924 55.4046C74.1643 53.7915 77.5172 54.5465 78.9803 55.4468ZM77.9955 57.0459C76.9169 56.3941 74.2956 55.8267 71.7587 57.0881C70.1174 57.904 68.4198 58.9545 66.9239 59.8876C65.8876 60.5254 64.9122 61.1116 64.0775 61.5805C63.3975 61.9463 61.7938 62.7012 60.4386 63.3296C60.9968 63.5528 61.539 63.8145 62.0611 64.1127C65.3905 62.312 67.2147 61.1256 68.5511 60.2534C69.9668 59.2534 71.501 58.4327 73.1186 57.8102C75.3273 56.9615 76.9779 56.727 78.0565 57.0928L77.9955 57.0459ZM57.6906 61.6039L57.7693 61.5606C59.9333 60.3704 63.4197 58.4527 64.4667 58.4527C64.7572 58.4187 65.0515 58.4674 65.3155 58.5934C65.2887 58.5652 65.2722 58.5289 65.2686 58.4902C65.2665 58.4746 65.2665 58.4589 65.2686 58.4433L65.5265 58.5465C64.6637 59.0764 63.8524 59.5734 63.1818 59.9533C62.1642 60.5019 58.7785 62.0541 57.775 62.5137L57.4092 62.4246L56.5651 62.2042L57.6906 61.6039ZM65.5406 69.3179C71.4914 65.3038 76.7434 61.0834 77.3531 59.6766H77.3624C77.4892 59.4456 77.5524 59.185 77.5453 58.9216V58.8935C77.4281 58.7903 76.4246 58.5512 73.7938 59.5594C72.2985 60.1343 70.8807 60.8936 69.5734 61.8196C68.3167 62.6403 66.6332 63.7329 63.7211 65.3367C64.3838 65.9428 64.9002 66.6916 65.2311 67.5266C65.4486 68.0982 65.5537 68.7065 65.5406 69.3179Z" fill="#008DC8"/>
<path fill-rule="evenodd" clip-rule="evenodd" d="M21.0199 44.5769C20.4803 44.2709 20.1092 43.7359 20.0117 43.1232C19.9475 42.4028 20.1493 41.6838 20.5791 41.1021C20.5854 40.5843 20.7038 40.0739 20.9261 39.6062C21.728 37.7211 28.4291 32.408 35.4866 27.789C35.8417 27.353 36.3261 27.041 36.8699 26.898C42.8442 23.109 48.8137 20 51.5429 20C56.8841 20 78.5771 31.0294 79.5009 31.503C79.9454 31.7471 80.1154 32.3004 79.8845 32.752C79.6536 33.2036 79.1056 33.3898 78.6474 33.1724C72.509 30.0305 55.6274 21.8757 51.5429 21.8757C49.4843 21.8757 45.0951 24.0469 40.3401 26.9027C41.7234 27.1513 43.2381 27.5827 44.734 28.0094C45.9016 28.3949 47.1002 28.6789 48.3166 28.8582C52.1938 28.9943 56.0742 28.7097 59.89 28.0094C60.222 27.934 60.5689 28.0446 60.7961 28.2982C61.0233 28.5518 61.0953 28.9086 60.984 29.2305C60.8727 29.5523 60.5958 29.7885 60.2604 29.8476C56.2969 30.5943 52.2631 30.901 48.2322 30.7621C46.8686 30.5795 45.5259 30.2654 44.2228 29.8242C42.3143 29.2755 39.0364 28.3424 37.5827 28.6378L36.8699 29.1067C36.3103 29.9012 36.1787 30.9207 36.5182 31.8312C37.1888 33.5991 39.4913 35.0059 43.0036 35.8266C44.9828 36.2715 46.9922 36.5693 49.0154 36.7176L49.1348 36.7289L49.1349 36.7289C50.3396 36.8434 51.7158 36.9741 53.5312 37.2146C54.1968 37.3031 54.9132 37.7103 55.9968 38.3262L56.0213 38.3401C59.9703 40.6817 64.3295 42.2493 68.8654 42.9591C75.2259 44.0496 78.1051 42.9855 78.4055 42.8745L78.4055 42.8744L78.4058 42.8744C78.4217 42.8685 78.4303 42.8653 78.4317 42.8653C78.8983 42.6567 79.4461 42.8602 79.6633 43.3229C79.8806 43.7855 79.6874 44.337 79.2289 44.5628C79.1398 44.605 77.5689 45.3225 74.1269 45.3225C72.2559 45.2947 70.3906 45.108 68.5512 44.7645C63.7999 44.0208 59.2339 42.3783 55.0975 39.9251C54.5314 39.5565 53.9238 39.2558 53.2874 39.0294C51.4398 38.8043 50.0564 38.673 48.8419 38.5605C48.0447 38.4854 47.3131 38.4151 46.5628 38.326C45.4137 38.843 44.2943 39.4239 43.2099 40.0658C39.6179 42.0634 36.9684 43.4702 35.5335 43.4702C34.3752 43.4702 33.578 43.1607 33.1513 42.5324C33.1169 42.4795 33.0856 42.4247 33.0575 42.3682C31.7867 43.142 30.4268 43.9485 29.0762 44.6238C27.8183 45.2461 26.4328 45.5672 25.0293 45.5617C23.6298 45.5888 22.2476 45.2493 21.0199 44.5769ZM22.0047 42.9778C23.0832 43.6297 25.7046 44.1971 28.2415 42.9356C29.8828 42.1197 31.5803 41.0693 33.0762 40.1361C34.1126 39.4983 35.088 38.9122 35.9227 38.4432C36.6026 38.0775 38.2064 37.3225 39.5616 36.6941C39.0033 36.4709 38.4612 36.2092 37.9391 35.911C34.6097 37.7117 32.7855 38.8981 31.449 39.7703C30.0334 40.7704 28.4992 41.591 26.8816 42.2135C25.6741 42.7298 24.3852 43.0298 23.0738 43.0998C22.6939 43.1059 22.3154 43.0505 21.9531 42.9356L22.0047 42.9778ZM42.3096 38.4198L42.2309 38.4631C40.0669 39.6534 36.5805 41.571 35.5335 41.571C35.2429 41.6051 34.9487 41.5563 34.6847 41.4304C34.7114 41.4585 34.7279 41.4949 34.7316 41.5335C34.7336 41.5491 34.7336 41.5649 34.7316 41.5804L34.4737 41.4772C35.3365 40.9427 36.1478 40.4503 36.8183 40.0704C37.8359 39.5218 41.2217 37.9696 42.2252 37.5101L42.5909 37.5992L43.435 37.8196L42.3096 38.4198ZM34.4502 30.7058C28.4994 34.7199 23.2474 38.9403 22.6377 40.3471C22.5077 40.5772 22.4413 40.8378 22.4455 41.1021V41.1302C22.5627 41.2334 23.5662 41.4726 26.197 40.4643C27.6923 39.8894 29.1101 39.1301 30.4174 38.2041C31.6741 37.3834 33.3576 36.2908 36.2697 34.6871C35.607 34.0809 35.0906 33.3321 34.7597 32.4971C34.5422 31.9255 34.4371 31.3173 34.4502 30.7058Z" fill="#008DC8"/>
</svg>
