<svg width="100" height="100" viewBox="0 0 100 100" fill="none" xmlns="http://www.w3.org/2000/svg">
<rect width="100" height="100" rx="8" fill="#E0EDF5"/>
<path d="M50.2044 46.6542C49.7851 46.6542 49.4448 46.3139 49.4448 45.8946V39.8421C49.4448 39.4228 49.7851 39.0825 50.2044 39.0825C50.6237 39.0825 50.964 39.4228 50.964 39.8421V45.8946C50.964 46.3139 50.6237 46.6542 50.2044 46.6542Z" fill="#008DC8"/>
<path d="M53.2298 43.6281H47.1781C46.7588 43.6281 46.4185 43.2878 46.4185 42.8685C46.4185 42.4492 46.7588 42.1089 47.1781 42.1089H53.2298C53.6491 42.1089 53.9894 42.4492 53.9894 42.8685C53.9894 43.2878 53.6498 43.6281 53.2298 43.6281Z" fill="#008DC8"/>
<path d="M59.0786 56.3356H41.3304C40.9111 56.3356 40.5708 55.9953 40.5708 55.576C40.5708 55.1567 40.9111 54.8164 41.3304 54.8164H59.0779C59.4972 54.8164 59.8375 55.1567 59.8375 55.576C59.8375 55.9953 59.4979 56.3356 59.0786 56.3356Z" fill="#008DC8"/>
<path d="M59.0786 61.5124H41.3304C40.9111 61.5124 40.5708 61.1721 40.5708 60.7528C40.5708 60.3335 40.9111 59.9932 41.3304 59.9932H59.0779C59.4972 59.9932 59.8375 60.3335 59.8375 60.7528C59.8375 61.1721 59.4979 61.5124 59.0786 61.5124Z" fill="#008DC8"/>
<path d="M59.0786 66.6886H41.3304C40.9111 66.6886 40.5708 66.3483 40.5708 65.929C40.5708 65.5097 40.9111 65.1694 41.3304 65.1694H59.0779C59.4972 65.1694 59.8375 65.5097 59.8375 65.929C59.8375 66.3483 59.4979 66.6886 59.0786 66.6886Z" fill="#008DC8"/>
<path fill-rule="evenodd" clip-rule="evenodd" d="M39.1706 32.6715H61.2387C61.4973 32.6715 61.7384 32.5398 61.8775 32.3217C62.0172 32.1036 62.0361 31.8295 61.9281 31.5945L58.5339 24.1998C58.4103 23.9297 58.1403 23.7568 57.8439 23.7568H42.5648C42.2684 23.7568 41.999 23.9304 41.8748 24.1998L38.4806 31.5945C38.3725 31.8295 38.3914 32.1036 38.5312 32.3217C38.671 32.5398 38.912 32.6715 39.1706 32.6715ZM60.0544 31.1523H40.3549L43.0523 25.2767H57.357L60.0544 31.1523Z" fill="#008DC8"/>
<path d="M53.3471 24.8884C52.9278 24.8884 52.5875 24.5481 52.5875 24.1288C52.5875 22.69 51.5186 21.5192 50.2047 21.5192C48.8908 21.5192 47.8219 22.69 47.8219 24.1288C47.8219 24.5481 47.4816 24.8884 47.0623 24.8884C46.643 24.8884 46.3027 24.5481 46.3027 24.1288C46.3027 21.8521 48.0535 20 50.2047 20C52.3559 20 54.1067 21.8521 54.1067 24.1288C54.1067 24.5481 53.7664 24.8884 53.3471 24.8884Z" fill="#008DC8"/>
<path d="M66.474 73.3441H33.9349C33.5156 73.3441 33.1753 73.0038 33.1753 72.5845V28.9539C33.1753 28.5346 33.5156 28.1943 33.9349 28.1943H40.5282C40.9475 28.1943 41.2878 28.5346 41.2878 28.9539C41.2878 29.3732 40.9475 29.7135 40.5282 29.7135H34.6945V71.8249H65.7137V29.7135H59.88C59.4607 29.7135 59.1204 29.3732 59.1204 28.9539C59.1204 28.5346 59.4607 28.1943 59.88 28.1943H66.4733C66.8926 28.1943 67.2329 28.5346 67.2329 28.9539V72.5845C67.2336 73.0038 66.8933 73.3441 66.474 73.3441Z" fill="#008DC8"/>
<path d="M68.029 80.0002H32.38C30.0053 80.0002 28 78.1542 28 75.9692V29.2868C28 27.0918 30.006 25.2363 32.38 25.2363H41.8861C42.3054 25.2363 42.6457 25.5766 42.6457 25.9959C42.6457 26.4152 42.3054 26.7555 41.8861 26.7555H32.38C30.9985 26.7555 29.5192 27.7724 29.5192 29.2868V75.9692C29.5192 77.4716 30.9985 78.481 32.38 78.481H68.0297C69.4112 78.481 70.8905 77.4716 70.8905 75.9692V29.2868C70.8905 27.773 69.4112 26.7555 68.0297 26.7555H58.5229C58.1036 26.7555 57.7633 26.4152 57.7633 25.9959C57.7633 25.5766 58.1036 25.2363 58.5229 25.2363H68.029C70.4037 25.2363 72.409 27.0911 72.409 29.2868V75.9692C72.4097 78.1542 70.4037 80.0002 68.029 80.0002Z" fill="#008DC8"/>
<path fill-rule="evenodd" clip-rule="evenodd" d="M44.5633 49.2692H55.8458C56.2658 49.2692 56.6054 48.9289 56.6061 48.5096V37.2264C56.6061 36.8071 56.2658 36.4668 55.8465 36.4668H44.5633C44.144 36.4668 43.8037 36.8071 43.8037 37.2264V48.5096C43.8037 48.9289 44.144 49.2692 44.5633 49.2692ZM55.0862 47.75H45.3229V37.986H55.0862V47.75Z" fill="#008DC8"/>
</svg>
