<svg width="100" height="100" viewBox="0 0 100 100" fill="none" xmlns="http://www.w3.org/2000/svg">
<rect width="100" height="100" rx="8" fill="#E0EDF5"/>
<path fill-rule="evenodd" clip-rule="evenodd" d="M75.541 65.2429C75.0922 64.5209 74.491 63.9056 73.7797 63.4401L72.1395 62.3294C73.4054 61.07 74.1906 59.4073 74.3588 57.6296C74.3743 57.5365 74.3805 57.4421 74.3775 57.3478C74.393 57.1892 74.3951 57.0287 74.3951 56.8846V55.8485C74.4935 53.0098 73.0352 50.3435 70.5918 48.895C68.1485 47.4464 65.1095 47.4464 62.6661 48.895C60.2228 50.3435 58.7644 53.0098 58.8628 55.8485V56.8846C58.8628 56.9623 58.8742 57.1416 58.8846 57.2991L58.8991 57.526C59.046 59.3799 59.8625 61.1171 61.1961 62.4133L59.7373 63.2422C59.2654 62.587 58.6847 62.0175 58.0205 61.5585L57.5438 61.2415C57.4733 61.195 57.3975 61.1571 57.318 61.1285C56.7999 60.9431 56.2819 60.7307 55.7638 60.4965C57.4018 59.0552 58.4255 57.0411 58.6245 54.8684C58.6383 54.7716 58.6442 54.6739 58.6421 54.5762C58.6556 54.4011 58.6566 54.2394 58.6566 54.0789V52.9184C58.6663 49.0373 56.0779 45.6295 52.3364 44.5977C48.595 43.5659 44.6257 45.1651 42.6446 48.5025C41.8349 49.8329 41.4082 51.361 41.4116 52.9184V54.0789C41.4116 54.1897 41.4313 54.4519 41.4479 54.6466C41.4443 54.6953 41.4443 54.7441 41.4479 54.7927C41.6238 56.9102 42.5824 58.8861 44.1366 60.3349L41.9442 61.5855C41.2355 61.9834 40.6055 62.5077 40.0854 63.1324L38.8856 62.3242C40.1596 61.0526 40.9472 59.3744 41.1112 57.5819C41.1215 57.4922 41.1266 57.4019 41.1267 57.3115C41.1391 57.1675 41.1412 57.0245 41.1412 56.8815V55.8516C41.245 53.0096 39.7881 50.3378 37.3426 48.886C34.8972 47.4342 31.854 47.4342 29.4086 48.886C26.9631 50.3378 25.5061 53.0096 25.61 55.8516V56.8815C25.61 56.9851 25.6286 57.24 25.641 57.4089C25.6385 57.4482 25.6385 57.4877 25.641 57.527C25.7935 59.3799 26.613 61.1146 27.9474 62.4092L26.129 63.4453C24.1938 64.5527 22.9999 66.6117 23 68.8413V78.9641C23 79.5363 23.4639 80.0002 24.0361 80.0002H75.4737C76.0459 80.0002 76.5098 79.5363 76.5098 78.9641V68.573C76.5151 67.3927 76.1787 66.2361 75.541 65.2429ZM60.9447 57.0502L60.9446 57.0493C60.94 56.9845 60.9357 56.9243 60.935 56.8867V55.8506C60.8505 53.7614 61.9169 51.7936 63.7134 50.7239C65.5099 49.6541 67.748 49.6541 69.5445 50.7239C71.3411 51.7936 72.4075 53.7614 72.3229 55.8506V56.8867C72.325 56.9745 72.3226 57.0623 72.3156 57.1499C72.3156 57.1665 72.3128 57.2146 72.3099 57.2628C72.3071 57.311 72.3042 57.3592 72.3042 57.3757C72.1639 58.9815 71.3457 60.4513 70.0549 61.4166L69.9222 61.514C69.8844 61.5355 69.8477 61.559 69.8124 61.5844C69.6746 61.6836 69.5295 61.7723 69.3783 61.8497L69.1897 61.9595H69.1804L69.1679 61.9657C69.0848 61.9945 69.0047 62.0313 68.9286 62.0755L68.8146 62.117L68.7775 62.1298C68.7168 62.1508 68.6623 62.1697 68.6416 62.1791C68.3455 62.2925 68.0419 62.3853 67.7329 62.4568C67.3833 62.5297 67.027 62.5661 66.6699 62.5656H66.5238C66.3477 62.5594 66.1726 62.5387 65.9208 62.5066C65.8229 62.5012 65.7254 62.4908 65.6286 62.4755C65.5747 62.463 65.5136 62.4506 65.4121 62.4309L65.3489 62.4175H65.3385L65.18 62.3781C65.1065 62.362 65.0342 62.3412 64.9634 62.3159C64.8952 62.2973 64.8331 62.2735 64.6743 62.2127L64.6741 62.2126L64.6733 62.2123C64.578 62.1781 64.491 62.1429 64.3946 62.0994H64.3842H64.3728L64.3127 62.0745C64.307 62.0704 64.2907 62.0623 64.2728 62.0534L64.2589 62.0465C64.2502 62.0422 64.2395 62.0361 64.2274 62.0292C64.2076 62.0179 64.1842 62.0046 64.1604 61.9937C64.1019 61.9596 64.0414 61.9291 63.9791 61.9025C63.9352 61.8738 63.8887 61.8491 63.8403 61.8289L63.7543 61.7823L63.7439 61.7761L63.7035 61.7533C63.6649 61.722 63.6241 61.6936 63.5813 61.6683L63.574 61.6787C63.5409 61.6563 63.5063 61.6362 63.4704 61.6186L63.4766 61.6041C62.0503 60.6735 61.1284 59.1412 60.9744 57.4452C60.9694 57.4121 60.9638 57.3296 60.957 57.2298L60.9516 57.1509C60.9496 57.119 60.9473 57.0861 60.945 57.0541L60.9449 57.0523L60.9448 57.0509L60.9447 57.0502ZM43.5191 54.5524C43.5263 54.6108 43.5284 54.6697 43.5253 54.7285C43.7162 56.6702 44.7735 58.4219 46.4026 59.4956L46.3964 59.5112C46.4391 59.5323 46.48 59.5569 46.5186 59.5847L46.5259 59.5744C46.5725 59.6027 46.6172 59.6342 46.6595 59.6687L46.7397 59.7151C46.8854 59.7995 46.9793 59.8539 47.0792 59.9007L47.2211 59.9671L47.265 59.9882L47.265 59.9882C47.4374 60.0712 47.6075 60.1531 47.7899 60.2209C48.0246 60.3063 48.264 60.3779 48.5069 60.4354C48.7497 60.4932 48.9962 60.5344 49.2446 60.5587C49.5078 60.6005 49.7739 60.6216 50.0404 60.6219C50.8942 60.618 51.739 60.4469 52.527 60.1183C52.753 60.0263 52.9728 59.9197 53.1849 59.7992L53.185 59.7992C53.2171 59.7785 53.2492 59.7578 53.2823 59.7401C53.4248 59.6626 53.5616 59.575 53.6916 59.478C53.8169 59.3965 53.871 59.3561 53.9348 59.3085L53.9349 59.3085L53.9382 59.306C55.4404 58.1955 56.3932 56.4933 56.5544 54.6321C56.5544 54.6185 56.557 54.5703 56.5596 54.5226L56.5596 54.5222C56.5622 54.4755 56.5647 54.4294 56.5647 54.4166C56.573 54.2964 56.573 54.1845 56.573 54.0747V52.9143C56.5767 49.9695 54.6113 47.3857 51.7724 46.6032C48.9335 45.8207 45.9219 47.0327 44.4164 49.5635C43.7989 50.5715 43.4759 51.7322 43.4839 52.9143V54.0747C43.4849 54.1804 43.5087 54.4695 43.5191 54.5524ZM42.9606 63.3862L45.9798 61.6704C46.0524 61.7098 46.1249 61.7461 46.1985 61.7802L46.3259 61.8414L46.3365 61.8464C46.5763 61.9607 46.8114 62.0728 47.0636 62.1667C47.3741 62.2809 47.691 62.3767 48.0127 62.4537C48.3296 62.5297 48.6511 62.5847 48.9752 62.6185C49.402 62.6795 49.8333 62.7028 50.2642 62.6879C50.4993 62.6817 50.7356 62.6682 50.9718 62.6412C51.1117 62.6247 51.2516 62.6019 51.3914 62.578C51.5945 62.5435 51.7972 62.5021 51.9996 62.4537L52.0439 62.4433C52.1473 62.4189 52.2506 62.3945 52.354 62.3646C52.6809 62.2738 53.0025 62.1652 53.3176 62.0393C53.4864 61.9688 53.6367 61.9015 53.7724 61.832C54.6532 62.2914 55.5631 62.6926 56.4963 63.0329L56.8611 63.2764C57.397 63.6453 57.8547 64.1164 58.208 64.6627C58.3047 64.8161 58.3919 64.9753 58.4691 65.1393C58.7971 65.7905 58.9655 66.5104 58.9602 67.2395V77.927H40.5444V67.5503C40.5454 66.6802 40.7821 65.8266 41.2293 65.0802C41.644 64.3716 42.2421 63.7878 42.9606 63.3904V63.3862ZM27.6822 56.8774C27.6832 56.981 27.7081 57.2587 27.7143 57.3188C27.7203 57.3627 27.7238 57.407 27.7247 57.4514C27.8881 59.14 28.8073 60.6638 30.2248 61.5958C30.2575 61.6175 30.289 61.6411 30.3191 61.6663L30.3212 61.6677C30.3271 61.6717 30.3344 61.6766 30.3408 61.6766L30.6454 61.8559L30.673 61.8714C30.708 61.8912 30.7425 61.9107 30.777 61.9263C30.8796 61.9781 30.9635 62.0185 31.0475 62.059C31.178 62.1232 31.3044 62.1781 31.4339 62.2268C31.5935 62.2838 31.7686 62.3346 31.9426 62.3822L32.0577 62.4143C32.264 62.4633 32.4734 62.4979 32.6845 62.518C32.7284 62.5236 32.7679 62.5258 32.8067 62.5281C32.8394 62.5299 32.8715 62.5318 32.9052 62.5356C33.1791 62.5553 33.454 62.5553 33.7279 62.5356C33.9071 62.5242 34.0853 62.5107 34.2646 62.4817C34.391 62.462 34.5174 62.4361 34.6427 62.4081C34.9531 62.3397 35.2576 62.2472 35.5535 62.1315C35.7463 62.0584 35.9318 61.9675 36.1078 61.86C36.1819 61.8196 36.2426 61.7828 36.3015 61.747L36.315 61.7388C36.3979 61.688 36.4746 61.6373 36.5471 61.5844L36.5585 61.5772C36.5868 61.5559 36.6162 61.5362 36.6466 61.5181L36.7947 61.4145C38.0888 60.4484 38.9093 58.9762 39.0504 57.3675C39.0504 57.3312 39.0576 57.1654 39.0628 57.124C39.069 57.0419 39.0711 56.9596 39.069 56.8774V55.8475C39.1583 53.7555 38.0931 51.783 36.2947 50.7104C34.4964 49.6378 32.2547 49.6378 30.4564 50.7104C28.6581 51.783 27.5929 53.7555 27.6822 55.8475V56.8774ZM25.0722 68.8413C25.0714 67.3556 25.8676 65.9836 27.1579 65.2471L29.7824 63.753C29.83 63.7779 29.8725 63.7986 29.9036 63.811C29.9555 63.837 30.0075 63.8616 30.0589 63.886L30.0953 63.9032C30.3051 64.0085 30.5202 64.1029 30.7397 64.1861C30.9469 64.2555 31.177 64.3218 31.4028 64.383C31.4313 64.3907 31.458 64.3993 31.4848 64.408L31.4849 64.408C31.5157 64.4179 31.5467 64.428 31.581 64.4368C31.8712 64.5014 32.1645 64.5512 32.4597 64.586C32.7663 64.6246 33.0749 64.645 33.3839 64.6472C33.6996 64.6447 34.0148 64.6226 34.3278 64.5809L34.4314 64.5653C34.7037 64.5268 34.9738 64.4739 35.2406 64.4068C35.2631 64.401 35.2856 64.3956 35.3079 64.3902C35.3461 64.3809 35.384 64.3717 35.4219 64.3612C35.734 64.2754 36.0408 64.1716 36.3409 64.0504C36.4228 64.0156 36.5109 63.9756 36.5991 63.9354L36.5995 63.9352L36.6424 63.9157C36.7896 63.8473 36.9201 63.7799 37.0351 63.7084C37.0484 63.7012 37.0622 63.6943 37.0759 63.6873L37.076 63.6873C37.0976 63.6764 37.1191 63.6655 37.1387 63.6535L37.1501 63.6463L38.9996 64.8896C38.9006 65.1301 38.8155 65.3761 38.7447 65.6263C38.7281 65.6843 38.7143 65.7423 38.7005 65.8003L38.7005 65.8004C38.6936 65.8294 38.6867 65.8584 38.6794 65.8874C38.6369 66.0604 38.6007 66.2345 38.5758 66.4117C38.5561 66.5267 38.5375 66.6406 38.525 66.7556C38.5054 66.9256 38.496 67.0976 38.4898 67.2737C38.4898 67.3186 38.4852 67.3631 38.4805 67.4076C38.4759 67.4524 38.4712 67.4974 38.4712 67.5431V77.928H25.0722V68.8413ZM61.0376 77.927H74.4376L74.4324 68.5719C74.4371 67.7885 74.2147 67.0206 73.7921 66.3609C73.4982 65.8838 73.1031 65.477 72.6348 65.1694L70.3926 63.6556L70.3709 63.667C70.2869 63.7178 70.2237 63.7551 70.1554 63.7913L70.1419 63.7976C70.1373 63.8002 70.1326 63.8031 70.1279 63.8061C70.1197 63.8112 70.1114 63.8164 70.1035 63.8203L70.0818 63.8328L70.0414 63.8545L70.0279 63.8608C70.0175 63.8657 70.007 63.8719 69.9967 63.878C69.9855 63.8846 69.9744 63.8911 69.9637 63.896C69.905 63.9246 69.8444 63.9492 69.7824 63.9695L69.7565 63.982H69.7502L69.7078 63.9986C69.6464 64.0349 69.5806 64.0631 69.5119 64.0825C69.4959 64.0881 69.4269 64.1074 69.3866 64.1187C69.3749 64.122 69.3656 64.1246 69.3607 64.126C68.9723 64.272 68.5746 64.3918 68.1702 64.4845C67.9494 64.5308 67.7263 64.5653 67.5019 64.5881C67.4009 64.5998 67.3 64.6061 67.1985 64.6124C67.1739 64.614 67.1494 64.6155 67.1247 64.6171C67.0988 64.6187 67.073 64.6204 67.0471 64.6222C66.9693 64.6274 66.8916 64.6327 66.8139 64.6327C66.7867 64.6331 66.7599 64.6352 66.7332 64.6373C66.7031 64.6396 66.6732 64.642 66.6429 64.642H66.6139H66.5642C66.5317 64.6414 66.503 64.6397 66.4729 64.6379C66.4465 64.6363 66.419 64.6347 66.387 64.6337C66.3581 64.6328 66.3297 64.631 66.3015 64.6292C66.2632 64.6268 66.2253 64.6244 66.1871 64.6244H66.1726C66.0047 64.614 65.8451 64.6016 65.6939 64.5798C65.5809 64.5726 65.41 64.5446 65.2556 64.5176L65.1054 64.4855C65.0629 64.4793 65.0214 64.471 64.979 64.4617C64.9239 64.452 64.8696 64.4384 64.8165 64.421C64.8145 64.4203 64.8117 64.4193 64.808 64.4182C64.8108 64.4191 64.8137 64.4201 64.8165 64.421C64.8344 64.4276 64.7903 64.4181 64.7344 64.3995C64.608 64.3716 64.5106 64.3457 64.4164 64.3156L64.32 64.2856C64.2433 64.2711 64.1024 64.2296 63.9739 64.1819C63.8455 64.1343 63.7284 64.0814 63.6061 64.0234L63.5274 63.9872C63.4654 63.9626 63.4049 63.9346 63.3461 63.9032C63.3036 63.8846 63.2569 63.8628 63.2424 63.8545C63.1711 63.827 63.1019 63.7945 63.0352 63.7571L62.3203 64.1643C62.2896 64.1823 62.2578 64.1982 62.225 64.212L60.6915 65.0854C60.6978 65.1041 60.7016 65.1235 60.7055 65.1429C60.7094 65.1624 60.7133 65.1818 60.7195 65.2004C60.8013 65.4617 60.8667 65.7278 60.9153 65.9972L60.9178 66.0103C60.9325 66.0898 60.9471 66.1685 60.9589 66.249C61.0088 66.5779 61.0351 66.9099 61.0376 67.2426V77.927Z" fill="#008DC8"/>
<path fill-rule="evenodd" clip-rule="evenodd" d="M30.7564 39.1131V45.3277C30.7563 45.7174 30.9749 46.0741 31.3222 46.251C31.6694 46.4279 32.0865 46.395 32.4017 46.1659L39.3022 41.1459H44.8775C47.2712 41.1497 49.5941 40.3339 51.4599 38.8344C53.3257 40.3339 55.6486 41.1497 58.0423 41.1459H63.6155L70.517 46.1659C70.6941 46.2945 70.9074 46.3638 71.1263 46.3638C71.2884 46.3637 71.4484 46.3261 71.5936 46.254C71.941 46.0769 72.1597 45.7197 72.1593 45.3297V39.1131C75.8611 36.4188 77.4071 31.6473 75.9886 27.294C74.5701 22.9408 70.5097 19.9961 65.9312 20H58.0423C55.6512 19.9986 53.3305 20.8088 51.4599 22.2981C49.589 20.8095 47.2683 20.0001 44.8775 20.0021H36.9875C32.4096 19.998 28.3496 22.9419 26.9305 27.2943C25.5114 31.6467 27.0559 36.418 30.7564 39.1131ZM65.9312 22.0722C69.6969 22.0679 73.0162 24.5429 74.0866 28.1532C75.157 31.7636 73.7232 35.6478 70.5637 37.6967C70.2694 37.8875 70.0916 38.2143 70.0912 38.565V43.2938L64.5625 39.2737C64.3856 39.1447 64.1723 39.075 63.9533 39.0748H58.0475C55.8294 39.0723 53.6999 38.2038 52.1126 36.6544C52.0865 36.6316 52.0616 36.6074 52.038 36.5819C50.4377 34.9922 49.54 32.8282 49.5452 30.5725C49.5451 30.2821 49.5596 29.992 49.5887 29.7032C50.0271 25.3629 53.6852 22.0624 58.0475 22.0712L65.9312 22.0722ZM36.9875 22.0722C34.7319 22.0674 32.568 22.965 30.9781 24.5651C29.1637 26.376 28.2648 28.9099 28.5324 31.4594C28.8 34.0089 30.2053 36.3009 32.3561 37.6957C32.6507 37.8867 32.8286 38.2139 32.8286 38.565V43.2969L38.3562 39.2768C38.5332 39.1478 38.7465 39.0781 38.9655 39.0779H44.8744C46.7057 39.081 48.4881 38.487 49.9513 37.3859C49.9417 37.3745 49.9326 37.3623 49.9236 37.3499C49.9161 37.3397 49.9085 37.3294 49.9006 37.3196C49.8526 37.262 49.8078 37.2022 49.7628 37.1422C49.7398 37.1115 49.7168 37.0807 49.6933 37.0502C49.5597 36.8813 49.4281 36.7104 49.3069 36.5321C49.2592 36.4599 49.2129 36.3858 49.1665 36.3114C49.1443 36.2758 49.1221 36.2402 49.0996 36.2047C48.994 36.0369 48.8903 35.869 48.795 35.696C48.7287 35.5769 48.6665 35.4556 48.6054 35.3344C48.5184 35.1638 48.4365 34.9911 48.3599 34.8164C48.3039 34.6899 48.2511 34.5625 48.2003 34.434C48.1309 34.2558 48.0677 34.0766 48.0076 33.8963C48.0005 33.8746 47.9934 33.8529 47.9863 33.8313C47.9508 33.7226 47.9154 33.6144 47.8843 33.5046C47.8294 33.315 47.7838 33.1234 47.7403 32.9306C47.733 32.899 47.7256 32.8675 47.7182 32.8359C47.6961 32.7413 47.674 32.6467 47.6553 32.5504C47.6149 32.3359 47.5869 32.1183 47.5589 31.8997C47.5538 31.858 47.5479 31.8165 47.542 31.775C47.5324 31.7081 47.5229 31.6411 47.5165 31.5733C47.4854 31.2439 47.4678 30.9175 47.4678 30.5766C47.4678 30.2357 47.4864 29.8969 47.5185 29.5612C47.5249 29.4942 47.5343 29.4279 47.5437 29.3614C47.5497 29.319 47.5558 29.2766 47.561 29.2338C47.5911 29.01 47.6222 28.7862 47.6646 28.5645C47.6845 28.4598 47.7088 28.3559 47.7331 28.2514C47.7379 28.2308 47.7427 28.2101 47.7475 28.1894C47.761 28.1358 47.7741 28.0824 47.7872 28.029C47.8234 27.8814 47.8593 27.7349 47.9019 27.5895C47.9392 27.4621 47.9796 27.3367 48.0221 27.2103C48.0843 27.0169 48.1533 26.8259 48.2293 26.6373C48.2759 26.5161 48.3267 26.3959 48.3795 26.2767C48.4666 26.0809 48.5578 25.8903 48.6614 25.7007L48.6614 25.7006C48.7163 25.5908 48.7681 25.4872 48.8271 25.3836C48.9504 25.165 49.0862 24.9474 49.226 24.7402C49.2404 24.7176 49.2543 24.6949 49.2681 24.6724C49.2972 24.6249 49.326 24.578 49.3576 24.533C49.54 24.2688 49.7472 24.0035 49.9544 23.7507C48.4869 22.6594 46.7064 22.0707 44.8775 22.0722H36.9875Z" fill="#008DC8"/>
<path d="M55.7524 31.9741H68.222C68.7942 31.9741 69.2581 31.5102 69.2581 30.938C69.2581 30.3657 68.7942 29.9019 68.222 29.9019H55.7524C55.1802 29.9019 54.7163 30.3657 54.7163 30.938C54.7163 31.5102 55.1802 31.9741 55.7524 31.9741Z" fill="#008DC8"/>
<path d="M33.8594 31.9741H44.1831C44.7554 31.9741 45.2192 31.5102 45.2192 30.938C45.2192 30.3657 44.7554 29.9019 44.1831 29.9019H33.8594C33.2871 29.9019 32.8232 30.3657 32.8232 30.938C32.8232 31.5102 33.2871 31.9741 33.8594 31.9741Z" fill="#008DC8"/>
</svg>
