<svg width="100" height="100" viewBox="0 0 100 100" fill="none" xmlns="http://www.w3.org/2000/svg">
<rect width="100" height="100" rx="8" fill="#E0EDF5"/>
<path d="M51.8756 53.75C51.8756 53.9986 51.9744 54.2371 52.1502 54.4129C52.326 54.5887 52.5645 54.6875 52.8131 54.6875C52.8131 54.9361 52.9119 55.1746 53.0877 55.3504C53.2635 55.5262 53.502 55.625 53.7506 55.625C53.9993 55.625 54.2377 55.5262 54.4135 55.3504C54.5894 55.1746 54.6881 54.9361 54.6881 54.6875V54.4338C55.0456 54.2277 55.325 53.9093 55.483 53.5281C55.641 53.1469 55.6687 52.7242 55.5618 52.3257C55.455 51.9271 55.2195 51.575 54.892 51.324C54.5645 51.073 54.1633 50.9371 53.7506 50.9375H54.6881C54.9368 50.9375 55.1752 50.8387 55.351 50.6629C55.5269 50.4871 55.6256 50.2486 55.6256 50C55.6256 49.7514 55.5269 49.5129 55.351 49.3371C55.1752 49.1613 54.9368 49.0625 54.6881 49.0625C54.6881 48.8139 54.5894 48.5754 54.4135 48.3996C54.2377 48.2238 53.9993 48.125 53.7506 48.125C53.502 48.125 53.2635 48.2238 53.0877 48.3996C52.9119 48.5754 52.8131 48.8139 52.8131 49.0625V49.3162C52.4557 49.5223 52.1762 49.8407 52.0182 50.2219C51.8602 50.6031 51.8325 51.0258 51.9394 51.4243C52.0463 51.8229 52.2818 52.175 52.6093 52.426C52.9368 52.677 53.338 52.8129 53.7506 52.8125H52.8131C52.5645 52.8125 52.326 52.9113 52.1502 53.0871C51.9744 53.2629 51.8756 53.5014 51.8756 53.75Z" fill="#008DC8"/>
<path d="M24.0158 70.5943L45.8712 79.0003C46.0469 79.0678 46.2388 79.0808 46.422 79.0378L62.188 75.3282L67.813 76.1266V77.1877C67.813 77.4364 67.9117 77.6748 68.0875 77.8506C68.2634 78.0264 68.5018 78.1252 68.7505 78.1252H77.188C77.4366 78.1252 77.675 78.0264 77.8509 77.8506C78.0267 77.6748 78.1255 77.4364 78.1255 77.1877V60.3127C78.1255 60.0641 78.0267 59.8256 77.8509 59.6498C77.675 59.474 77.4366 59.3752 77.188 59.3752H68.7505C68.5018 59.3752 68.2634 59.474 68.0875 59.6498C67.9117 59.8256 67.813 60.0641 67.813 60.3127V61.2474L64.0447 61.2502L52.813 60.6558V59.3145C53.8697 59.4498 54.943 59.3584 55.9617 59.0464C56.9803 58.7344 57.9207 58.209 58.7204 57.5051C59.5201 56.8013 60.1607 55.9352 60.5995 54.9644C61.0383 53.9936 61.2652 52.9405 61.2652 51.8752C61.2652 50.8099 61.0383 49.7568 60.5995 48.786C60.1607 47.8153 59.5201 46.9491 58.7204 46.2453C57.9207 45.5414 56.9803 45.016 55.9617 44.704C54.943 44.3921 53.8697 44.3007 52.813 44.4359V43.4377C52.813 43.1891 52.7142 42.9506 52.5384 42.7748C52.3625 42.599 52.1241 42.5002 51.8755 42.5002H50.938V39.6877C50.938 39.4391 50.8392 39.2006 50.6634 39.0248C50.4876 38.849 50.2491 38.7502 50.0005 38.7502H49.063V35.9541C49.0617 34.6237 49.4673 33.3247 50.2252 32.2313L59.2817 33.1369L59.3082 33.1392C59.4509 33.1493 59.5942 33.1544 59.738 33.1544C62.0125 33.1544 64.3904 31.8966 65.7629 29.9364L70.4504 23.3739C70.5453 23.2409 70.6039 23.0854 70.6202 22.9228C70.6366 22.7602 70.6101 22.5961 70.5435 22.4469C70.4768 22.2977 70.3723 22.1684 70.2404 22.072C70.1084 21.9756 69.9535 21.9154 69.7911 21.8974L61.3536 20.9599C61.343 20.9587 61.3325 20.9576 61.3218 20.9569C58.7416 20.7589 55.5733 22.1335 53.9554 24.1562C53.9453 24.1688 53.9355 24.1817 53.9261 24.1949L49.977 29.6922C48.7556 30.7927 47.8819 32.2258 47.463 33.8157C47.121 33.342 46.7311 32.9049 46.2996 32.5112L42.3247 26.9771C42.3153 26.9638 42.3055 26.951 42.2954 26.9384C40.6774 24.9161 37.5086 23.5411 34.929 23.7392C34.9183 23.74 34.9078 23.7411 34.8972 23.7422L26.4597 24.6797C26.2973 24.6978 26.1424 24.758 26.0104 24.8544C25.8784 24.9508 25.774 25.08 25.7073 25.2293C25.6407 25.3785 25.6142 25.5426 25.6305 25.7052C25.6469 25.8678 25.7054 26.0233 25.8004 26.1563L30.4828 32.7115C31.8598 34.679 34.2378 35.9377 36.5122 35.9377C36.656 35.9377 36.7993 35.9326 36.942 35.9225C36.9509 35.9225 36.9597 35.9212 36.9685 35.9203L46.0165 35.0154C46.78 36.1111 47.1889 37.4147 47.188 38.7502H36.8755C36.6268 38.7502 36.3884 38.849 36.2125 39.0248C36.0367 39.2006 35.938 39.4391 35.938 39.6877V43.4377C35.938 43.6864 36.0367 43.9248 36.2125 44.1006C36.3884 44.2764 36.6268 44.3752 36.8755 44.3752H37.813V46.2502H36.8755C36.6268 46.2502 36.3884 46.349 36.2125 46.5248C36.0367 46.7006 35.938 46.9391 35.938 47.1877V50.9377C35.938 51.1864 36.0367 51.4248 36.2125 51.6006C36.3884 51.7764 36.6268 51.8752 36.8755 51.8752H37.813V53.7502H36.8755C36.6268 53.7502 36.3884 53.849 36.2125 54.0248C36.0367 54.2006 35.938 54.4391 35.938 54.6877V58.4377C35.938 58.6864 36.0367 58.9248 36.2125 59.1006C36.3884 59.2764 36.6268 59.3752 36.8755 59.3752H37.813V61.2502H36.8755C36.6268 61.2502 36.3884 61.349 36.2125 61.5248C36.0367 61.7006 35.938 61.9391 35.938 62.1877V65.9377C35.9378 66.0635 35.963 66.1879 36.0121 66.3037L26.2175 63.749C25.327 63.5166 24.3814 63.634 23.5748 64.0769C22.7682 64.5199 22.1617 65.2549 21.88 66.1309C21.5982 67.007 21.6625 67.9576 22.0597 68.7878C22.4569 69.6179 23.1568 70.2645 24.0158 70.5947V70.5943ZM69.688 61.2502H76.2505V76.2502H69.688V61.2502ZM57.5005 27.5166H55.6255C54.972 27.517 54.3208 27.5935 53.6851 27.7444L55.4346 25.3088C56.6603 23.7929 59.2237 22.682 61.1635 22.825L67.9963 23.5842L64.2324 28.854C63.1355 30.4209 61.2172 31.3903 59.4549 31.2699L51.951 30.5199C53.0347 29.7833 54.3151 29.3902 55.6255 29.3916H57.5005C57.7491 29.3916 57.9875 29.2928 58.1634 29.117C58.3392 28.9412 58.438 28.7028 58.438 28.4541C58.438 28.2055 58.3392 27.967 58.1634 27.7912C57.9875 27.6154 57.7491 27.5166 57.5005 27.5166ZM36.796 34.0526C35.0327 34.1731 33.1153 33.2035 32.0133 31.6294L28.2546 26.3677L35.0874 25.6086C37.0292 25.4665 39.5906 26.5763 40.8165 28.0922L42.5774 30.5437C41.938 30.3908 41.2829 30.3133 40.6255 30.3127H38.7505C38.5018 30.3127 38.2634 30.4115 38.0875 30.5873C37.9117 30.7631 37.813 31.0016 37.813 31.2502C37.813 31.4989 37.9117 31.7373 38.0875 31.9131C38.2634 32.0889 38.5018 32.1877 38.7505 32.1877H40.6255C41.9286 32.1863 43.2024 32.575 44.2826 33.3039L36.796 34.0526ZM53.7505 46.2502C54.863 46.2502 55.9505 46.5801 56.8755 47.1982C57.8006 47.8163 58.5215 48.6948 58.9473 49.7226C59.373 50.7505 59.4844 51.8815 59.2674 52.9726C59.0503 54.0637 58.5146 55.066 57.7279 55.8527C56.9413 56.6394 55.939 57.1751 54.8478 57.3921C53.7567 57.6092 52.6257 57.4978 51.5979 57.072C50.57 56.6463 49.6915 55.9253 49.0734 55.0003C48.4554 54.0753 48.1255 52.9877 48.1255 51.8752C48.1271 50.3839 48.7203 48.9541 49.7748 47.8996C50.8294 46.8451 52.2591 46.2519 53.7505 46.2502ZM50.938 59.3752V60.5567L47.9965 60.401C47.5809 60.3806 47.1654 60.4455 46.7757 60.5915C46.386 60.7376 46.0302 60.9617 45.7303 61.2502H39.688V59.3752H50.938ZM50.938 44.3752V44.9245C50.155 45.2428 49.4314 45.691 48.7976 46.2502H39.688V44.3752H50.938ZM37.813 40.6252H49.063V42.5002H37.813V40.6252ZM37.813 48.1252H47.2594C46.918 48.7122 46.6584 49.343 46.4878 50.0002H37.813V48.1252ZM46.4878 53.7502H39.688V51.8752H46.2505C46.2501 52.5077 46.3298 53.1377 46.4878 53.7502ZM37.813 55.6252H47.2594C47.6678 56.329 48.1872 56.9622 48.7976 57.5002H37.813V55.6252ZM37.813 63.1252H44.8021C44.7295 63.7771 44.8701 64.435 45.2029 65.0002H37.813V63.1252ZM48.9134 66.8752L49.4459 67.0078L45.2084 68.7033L38.203 66.8752H48.9134ZM23.7057 66.5921C23.8625 66.2021 24.1559 65.8824 24.5312 65.693C24.9064 65.5036 25.3378 65.4573 25.7447 65.5628L45.0338 70.5949C45.2276 70.6455 45.4326 70.6326 45.6186 70.5582L52.5584 67.7822L56.3368 68.7224C56.4566 68.7532 56.5813 68.7599 56.7037 68.7422C56.8261 68.7245 56.9438 68.6828 57.05 68.6194C57.1562 68.556 57.2488 68.4723 57.3225 68.373C57.3962 68.2737 57.4495 68.1607 57.4794 68.0407C57.5092 67.9207 57.5151 67.796 57.4965 67.6737C57.478 67.5514 57.4354 67.434 57.3713 67.3283C57.3072 67.2225 57.2228 67.1305 57.1229 67.0575C57.0231 66.9845 56.9098 66.932 56.7896 66.903L47.5564 64.6053C47.2711 64.5342 47.0225 64.3594 46.8589 64.1152C46.6953 63.8709 46.6285 63.5745 46.6713 63.2836C46.7141 62.9928 46.8636 62.7282 47.0907 62.5415C47.3178 62.3547 47.6062 62.2591 47.8999 62.2733L63.971 63.1237C63.9876 63.1245 67.8132 63.1222 67.8132 63.1222V74.2326L62.2772 73.4469C62.1618 73.4304 62.0443 73.4356 61.9308 73.4623L46.2746 77.1461L24.6889 68.844C24.4755 68.7619 24.2805 68.6383 24.1153 68.4803C23.9501 68.3223 23.8179 68.133 23.7264 67.9235C23.6349 67.714 23.586 67.4883 23.5824 67.2597C23.5789 67.0312 23.6208 66.8041 23.7057 66.5919V66.5921Z" fill="#008DC8"/>
</svg>
