<svg width="40" height="40" viewBox="0 0 40 40" fill="none" xmlns="http://www.w3.org/2000/svg">
<circle cx="20" cy="20" r="19.5" fill="#084E8A" stroke="#084E8A"/>
<path d="M31.2027 13.8522L21.6357 9.17866C20.811 8.76629 19.4089 8.76629 18.5842 9.17866L8.79725 13.8522C8.10997 14.1821 8 14.6495 8 14.8969C8 15.1443 8.10997 15.5842 8.79725 15.9415L9.5945 16.3264V20.7251C9.09966 20.9175 8.74227 21.4123 8.74227 21.9622C8.74227 22.512 9.09966 23.0068 9.56701 23.1993L8.3299 27.1306H11.7938L10.5567 23.1993C11.0515 23.0068 11.3814 22.512 11.3814 21.9622C11.3814 21.3848 11.0241 20.9175 10.5292 20.7251V16.7938L11.9863 17.5086V23.2268C11.9863 23.3092 12.0137 23.3917 12.0687 23.4742C12.2062 23.6391 14.7629 27.1306 19.9863 27.1306C25.2096 27.1306 27.7663 23.6117 27.8763 23.4742C27.9313 23.3917 27.9588 23.3092 27.9588 23.2268V17.5361L31.2027 15.9415C31.89 15.6117 32 15.1443 32 14.8969C31.9725 14.6495 31.89 14.1821 31.2027 13.8522ZM27.079 23.0893C26.6392 23.6391 24.2749 26.2783 19.9863 26.2783C15.6976 26.2783 13.3333 23.6391 12.8935 23.0893V17.8934L18.5842 20.6151C18.9966 20.8075 19.5464 20.9175 20.0962 20.9175C20.6735 20.9175 21.2234 20.8075 21.6357 20.5876L27.079 17.9209V23.0893ZM30.8179 15.1718L27.5189 16.7938C27.3814 16.7938 27.2715 16.8488 27.2165 16.9587L21.2509 19.8453C20.6735 20.1477 19.5464 20.1477 18.9416 19.8453L11.6014 16.3264L20.0412 15.3367C20.2887 15.3092 20.4536 15.0893 20.4261 14.8694C20.3986 14.622 20.1787 14.457 19.9588 14.4845L10.1718 15.6391L9.18213 15.1718C8.93471 15.0618 8.87973 14.9244 8.87973 14.9244C8.87973 14.8969 8.93471 14.7869 9.18213 14.6769L18.9691 9.97591C19.2715 9.83846 19.6838 9.75598 20.0962 9.75598C20.5361 9.75598 20.9759 9.83846 21.2509 9.97591L30.8179 14.6495C31.0653 14.7594 31.1203 14.8694 31.1203 14.9244C31.1203 14.9244 31.0378 15.0618 30.8179 15.1718Z" fill="white"/>
</svg>
