<svg width="116" height="124" viewBox="0 0 116 124" fill="none" xmlns="http://www.w3.org/2000/svg">
<g clip-path="url(#clip0_511_1361)">
<path d="M83.3747 0H77.333H38.6663H32.6247C25.2925 0 19.333 6.3705 19.333 14.2083V109.792C19.333 117.629 25.2925 124 32.6247 124H83.3747C90.7068 124 96.6663 117.629 96.6663 109.792V14.2083C96.6663 6.3705 90.7068 0 83.3747 0ZM86.9997 108.5C86.9997 111.352 84.8343 113.667 82.1663 113.667H33.833C31.165 113.667 28.9997 111.352 28.9997 108.5V15.5C28.9997 12.648 31.165 10.3333 33.833 10.3333H36.2497C38.9177 10.3333 41.083 12.648 41.083 15.5C41.083 18.352 43.2483 20.6667 45.9163 20.6667H70.083C72.751 20.6667 74.9163 18.352 74.9163 15.5C74.9163 12.648 77.0817 10.3333 79.7497 10.3333H82.1663C84.8343 10.3333 86.9997 12.648 86.9997 15.5V108.5Z" fill="#084E8A"/>
<path opacity="0.0752418" d="M58.9999 107.486C86.3304 107.486 108.486 85.3305 108.486 58C108.486 30.6695 86.3304 8.51379 58.9999 8.51379C31.6694 8.51379 9.51367 30.6695 9.51367 58C9.51367 85.3305 31.6694 107.486 58.9999 107.486Z" fill="#084E8A"/>
<g clip-path="url(#clip1_511_1361)">
<path d="M78.845 80.718H36.136C34.956 80.718 34 81.674 34 82.855C34 84.034 34.956 84.99 36.136 84.99H78.844C80.024 84.99 80.98 84.034 80.98 82.855C80.979 81.674 80.023 80.718 78.845 80.718Z" fill="#084E8A"/>
<path d="M38.8049 75.165C37.6249 75.165 36.6689 76.121 36.6689 77.301C36.6689 78.481 37.6249 79.438 38.8049 79.438H76.1749C77.3549 79.438 78.3109 78.481 78.3109 77.301C78.3109 76.121 77.3549 75.165 76.1749 75.165H75.6419V55.945H76.1749C76.7659 55.945 77.2419 55.467 77.2419 54.878C77.2419 54.289 76.7639 53.811 76.1749 53.811H38.8049C38.2149 53.811 37.7379 54.289 37.7379 54.878C37.7379 55.467 38.2159 55.945 38.8049 55.945H39.3389V75.164H38.8049V75.165ZM71.3699 55.945V75.164H64.9639V55.945H71.3699ZM60.6919 55.945V75.164H54.2859V55.945H60.6919ZM43.6089 55.945H50.0149V75.164H43.6089V55.945Z" fill="#084E8A"/>
<path d="M36.136 51.891H78.844C78.851 51.891 78.859 51.891 78.865 51.891C80.046 51.891 81.001 50.935 81.001 49.755C81.001 48.817 80.397 48.022 79.558 47.734L58.368 38.199C57.811 37.949 57.174 37.949 56.616 38.199L35.26 47.808C34.341 48.222 33.836 49.22 34.048 50.204C34.259 51.188 35.129 51.891 36.136 51.891Z" fill="#084E8A"/>
</g>
</g>
<defs>
<clipPath id="clip0_511_1361">
<rect width="116" height="124" fill="white"/>
</clipPath>
<clipPath id="clip1_511_1361">
<rect width="47.001" height="47.001" fill="white" transform="translate(34 38)"/>
</clipPath>
</defs>
</svg>
