<svg width="116" height="116" viewBox="0 0 116 116" fill="none" xmlns="http://www.w3.org/2000/svg">
<path d="M97.9082 7.44958H101.633V10.1101H97.9082V7.44958Z" fill="#084E8A"/>
<path d="M97.9082 22.8807H101.633V25.5413H97.9082V22.8807Z" fill="#084E8A"/>
<path d="M100.879 23.4129H95.07V19.8211H100.879C101.065 19.822 101.225 19.6913 101.266 19.5081C101.307 19.3248 101.216 19.1372 101.048 19.0582L96.4507 16.8757C95.07 16.2162 94.1871 14.8097 94.1836 13.2629C94.1853 10.9347 96.0481 9.04765 98.3464 9.0459H103.934V12.6376H98.3464C98.0053 12.6376 97.7292 12.9174 97.7292 13.2629C97.7309 13.4163 97.8192 13.5557 97.956 13.6215L102.553 15.8041C104.227 16.5959 105.133 18.4611 104.731 20.2885C104.33 22.1159 102.727 23.4155 100.879 23.4129Z" fill="#084E8A"/>
<path d="M14.3672 90.4587H18.092V93.1193H14.3672V90.4587Z" fill="#084E8A"/>
<path d="M14.3672 105.89H18.092V108.55H14.3672V105.89Z" fill="#084E8A"/>
<path d="M17.8694 106.954H12.0602V103.362H17.8694C18.0572 103.368 18.2217 103.239 18.2641 103.054C18.3074 102.87 18.2165 102.679 18.0469 102.599L13.4409 100.417C12.0602 99.7575 11.1773 98.351 11.1738 96.8041C11.1756 94.476 13.0384 92.5889 15.3366 92.5872H20.9242V96.1789H15.3366C14.9955 96.1789 14.7194 96.4586 14.7194 96.8041C14.7211 96.9576 14.8094 97.097 14.9462 97.1628L19.5435 99.3453C21.2176 100.137 22.1231 102.002 21.7214 103.83C21.3198 105.657 19.7175 106.957 17.8694 106.954Z" fill="#084E8A"/>
<path d="M99.7704 32.4587C108.734 32.4587 116 25.1928 116 16.2294C116 7.26588 108.734 0 99.7704 0C90.8069 0 83.541 7.26588 83.541 16.2294C83.5507 25.1884 90.8113 32.449 99.7704 32.4587ZM99.7704 3.60652C106.742 3.60652 112.393 9.25757 112.393 16.2294C112.393 23.2011 106.742 28.8522 99.7704 28.8522C92.7986 28.8522 87.1475 23.2011 87.1475 16.2294C87.1563 9.26197 92.803 3.61533 99.7704 3.60652Z" fill="#084E8A"/>
<path d="M16.2294 83.5413C7.26588 83.5413 0 90.8071 0 99.7706C0 108.734 7.26588 116 16.2294 116C25.1928 116 32.4587 108.734 32.4587 99.7706C32.449 90.8115 25.1884 83.5509 16.2294 83.5413ZM16.2294 112.393C9.25757 112.393 3.60652 106.742 3.60652 99.7706C3.60652 92.7988 9.25757 87.1478 16.2294 87.1478C23.2011 87.1478 28.8522 92.7988 28.8522 99.7706C28.8434 106.738 23.1967 112.385 16.2294 112.393Z" fill="#084E8A"/>
<path d="M7.44938 61.492C7.37783 60.4085 7.3425 59.3145 7.3425 58.2098V58H3.72461V58.2098C3.72461 59.3903 3.76171 60.5628 3.83679 61.7248L7.44938 61.492Z" fill="#084E8A"/>
<path d="M75.5596 6.87709C74.4442 6.49305 73.3079 6.14484 72.1833 5.85327L71.3027 9.14798C72.349 9.42705 73.4078 9.75361 74.4508 10.1102L75.5596 6.87709Z" fill="#084E8A"/>
<path d="M25.0096 19.3648L22.5622 16.4954C21.5798 17.3365 20.613 18.2181 19.6885 19.1228L22.3233 21.8165C23.1835 20.9744 24.0906 20.1489 25.0096 19.3648Z" fill="#084E8A"/>
<path d="M4.25684 67.1192C4.46633 68.3396 4.71897 69.5688 5.01033 70.7707L8.51372 69.9216C8.2426 68.8006 8.00669 67.655 7.81216 66.5138L4.25684 67.1192Z" fill="#084E8A"/>
<path d="M7.98149 49.0839L4.2727 48.422C4.04647 49.6815 3.86255 50.9796 3.72461 52.2731L7.46927 52.6789C7.60077 51.4643 7.76998 50.2571 7.98149 49.0839Z" fill="#084E8A"/>
<path d="M10.6425 40.6798L7.06906 39.3761C6.61786 40.6112 6.21021 41.8713 5.85352 43.1138L9.50015 44.1651C9.84202 43.0043 10.2228 41.8314 10.6425 40.6798Z" fill="#084E8A"/>
<path d="M56.9357 7.27197L56.8845 3.72473C55.664 3.74205 54.4262 3.80441 53.2109 3.90227L53.5098 7.4495C54.6425 7.34991 55.7978 7.29362 56.9357 7.27197Z" fill="#084E8A"/>
<path d="M11.706 78.3349C11.2313 77.2559 10.7837 76.1435 10.3946 75.0276L6.91699 76.2669C7.34482 77.464 7.81949 78.6655 8.32658 79.8166L11.706 78.3349Z" fill="#084E8A"/>
<path d="M19.1561 25.3106L16.2422 22.8807C15.404 23.8859 14.5945 24.9299 13.835 25.9822L16.9193 28.2018C17.6176 27.2217 18.3725 26.2444 19.1561 25.3106Z" fill="#084E8A"/>
<path d="M31.9267 14.1592L30.1573 11.1743C29.1163 11.7867 28.1084 12.4372 27.1377 13.1047L29.1028 15.9633C30.0099 15.3391 30.9602 14.7318 31.9267 14.1592Z" fill="#084E8A"/>
<path d="M13.8349 32.6328L10.7616 30.8624C10.151 31.9248 9.57167 33.0166 9.0459 34.0989L12.2334 35.6514C12.7202 34.6443 13.2642 33.6278 13.8349 32.6328Z" fill="#084E8A"/>
<path d="M48.4219 8.28837L47.7593 4.78894C46.5644 5.01331 45.3564 5.28985 44.165 5.60118L45.0738 9.04582C46.1852 8.75362 47.3088 8.49882 48.4219 8.28837Z" fill="#084E8A"/>
<path d="M66.5137 4.20809C65.2086 4.00093 63.8866 3.83857 62.5899 3.72473L62.2568 7.53092C63.4668 7.63823 64.6992 7.78939 65.9176 7.98161L66.5137 4.20809Z" fill="#084E8A"/>
<path d="M39.9081 10.3425L38.6167 6.91748C37.4416 7.35902 36.2647 7.8515 35.1191 8.38242L36.6513 11.7065C37.7181 11.214 38.8145 10.7564 39.9081 10.3425Z" fill="#084E8A"/>
<path d="M104.294 37.6651C104.769 38.7441 105.216 39.8565 105.605 40.9725L109.083 39.7331C108.655 38.5361 108.18 37.3346 107.673 36.1835L104.294 37.6651Z" fill="#084E8A"/>
<path d="M111.743 48.8809C111.534 47.6605 111.281 46.4313 110.99 45.2294L107.486 46.0785C107.757 47.1994 107.993 48.345 108.188 49.4862L111.743 48.8809Z" fill="#084E8A"/>
<path d="M59.0645 108.728L59.1157 112.275C60.3362 112.258 61.574 112.196 62.7892 112.098L62.4904 108.55C61.3577 108.65 60.2024 108.706 59.0645 108.728Z" fill="#084E8A"/>
<path d="M102.165 83.3673L105.238 85.1376C105.849 84.0752 106.428 82.9834 106.954 81.9012L103.767 80.3486C103.28 81.3557 102.736 82.3723 102.165 83.3673Z" fill="#084E8A"/>
<path d="M105.357 75.3201L108.928 76.6238C109.381 75.3888 109.789 74.1287 110.146 72.8862L106.494 71.8348C106.159 72.9957 105.778 74.1686 105.357 75.3201Z" fill="#084E8A"/>
<path d="M96.8438 90.6894L99.7576 93.1193C100.596 92.1142 101.405 91.0702 102.165 90.0178L99.0898 87.7982C98.3822 88.7783 97.6273 89.7557 96.8438 90.6894Z" fill="#084E8A"/>
<path d="M108.019 66.916L111.727 67.5779C111.954 66.3184 112.137 65.0203 112.275 63.7268L108.531 63.321C108.399 64.5356 108.23 65.7428 108.019 66.916Z" fill="#084E8A"/>
<path d="M108.551 54.508C108.622 55.5915 108.658 56.6856 108.658 57.7902V58H112.276V57.7902C112.276 56.6098 112.238 55.4372 112.162 54.2753L108.551 54.508Z" fill="#084E8A"/>
<path d="M76.0918 105.658L77.3767 109.083C78.554 108.641 79.7331 108.149 80.8808 107.618L79.3457 104.294C78.2859 104.786 77.1875 105.244 76.0918 105.658Z" fill="#084E8A"/>
<path d="M67.5781 107.712L68.2393 111.211C69.4347 110.987 70.6431 110.71 71.835 110.399L70.9259 106.954C69.8158 107.246 68.6917 107.501 67.5781 107.712Z" fill="#084E8A"/>
<path d="M49.4863 111.792C50.7915 111.999 52.1134 112.161 53.4102 112.275L53.7432 108.469C52.5332 108.362 51.3008 108.211 50.0825 108.018L49.4863 111.792Z" fill="#084E8A"/>
<path d="M84.0732 101.841L85.8426 104.826C86.8743 104.213 87.8916 103.563 88.8622 102.895L86.8972 100.037C85.99 100.661 85.0397 101.268 84.0732 101.841Z" fill="#084E8A"/>
<path d="M90.9912 96.6351L93.4385 99.5046C94.421 98.6634 95.3878 97.7818 96.3123 96.8771L93.6775 94.1835C92.8173 95.0255 91.9102 95.851 90.9912 96.6351Z" fill="#084E8A"/>
<path d="M40.4404 109.123C41.5559 109.507 42.6922 109.855 43.8168 110.147L44.6973 106.852C43.651 106.573 42.5922 106.246 41.5492 105.89L40.4404 109.123Z" fill="#084E8A"/>
<g clip-path="url(#clip0_332_1013)">
<path d="M58.1499 22C38.0577 22 22 38.29 22 58.1499C22 78.2051 38.2903 94.3007 58.1415 94.3C78.072 94.2997 94.2997 78.155 94.2997 58.1499C94.2997 38.3132 78.2552 22 58.1499 22ZM50.0972 61.8054L47.4341 73.3465C46.7667 76.2396 42.7455 76.6939 41.4978 73.931L35.5065 60.6384L39.5071 48.8959C39.8508 47.8875 39.392 46.781 38.4358 46.3115L30.4046 42.368C33.525 36.8778 38.1646 32.4703 43.7817 29.6441V34.9052C43.7817 35.9057 44.4818 36.7699 45.4607 36.9773L56.3065 39.2764C57.7807 39.5882 58.934 40.6882 59.3161 42.1466L60.3412 46.0598C60.6553 47.2617 60.3813 48.5589 59.6081 49.5297L50.5042 60.9621C50.3073 61.2092 50.1682 61.4974 50.0972 61.8054ZM55.8032 89.9788L57.0186 87.4135C57.2447 86.9356 57.4958 86.7102 57.9404 86.4411C58.4097 86.1601 59.1217 85.8333 60.2923 85.2457C61.3394 84.7216 62.4631 85.0538 63.0757 85.8587C63.0758 85.8589 63.0761 85.8591 63.0763 85.8593L65.6099 89.1859C62.4126 89.9506 59.0951 90.2187 55.8032 89.9788ZM78.7176 82.5506L75.9421 80.7503L74.6973 69.2136C74.5747 68.0785 74.8693 66.9375 75.5264 66.0016L81.7777 57.1039C82.0282 56.7474 82.1628 56.322 82.1628 55.8863V47.7137L86.2201 42.9525C88.7418 47.5982 90.0637 52.7983 90.0637 58.1499C90.0634 67.891 85.7048 76.6474 78.7176 82.5506Z" fill="#084E8A"/>
</g>
<defs>
<clipPath id="clip0_332_1013">
<rect width="72.3" height="72.3" fill="white" transform="translate(22 22)"/>
</clipPath>
</defs>
</svg>
