<svg width="120" height="116" viewBox="0 0 120 116" fill="none" xmlns="http://www.w3.org/2000/svg">
<circle cx="60" cy="58" r="54" fill="#ECF2F6"/>
<g clip-path="url(#clip0_332_1060)">
<path d="M99.9398 60.8566C97.152 57.3717 92.9451 54.9781 87.3193 53.6772C94.4833 50.1447 97.6317 44.1493 96.7673 35.69C96.4783 32.6224 95.6013 29.9639 94.1343 27.7104C92.6662 25.4564 90.6851 23.6444 88.1834 22.2737C85.6838 20.9012 82.9651 19.8564 80.0338 19.136C77.1017 18.4157 73.7354 17.8927 69.9372 17.5677V0H58.8322V17.0796C56.9092 17.0796 53.9766 17.126 50.0347 17.219V0H38.9282V17.5677C37.3412 17.6144 35.0098 17.638 31.9329 17.638L16.6445 17.5677V29.0009H24.6489C28.3029 29.0009 30.4424 30.5814 31.0673 33.7412V53.7492C31.5487 53.7492 31.9329 53.7731 32.2216 53.8195H31.0673V81.843C30.6831 84.2126 29.289 85.3986 26.8849 85.3986H18.881L16.645 98.1564H31.0686C31.9822 98.1564 33.3035 98.1681 35.035 98.1891C36.7655 98.2125 38.0631 98.2242 38.9287 98.2242V116.001H50.037V98.4333C52.0557 98.4809 54.9883 98.5036 58.8345 98.5036V116.001H69.9397V98.2242C73.8829 98.0387 77.3803 97.6919 80.4319 97.1789C83.485 96.6659 86.4065 95.8655 89.1943 94.7726C91.9819 93.6812 94.3134 92.3209 96.1881 90.6942C98.0638 89.069 99.613 86.9999 100.841 84.4898C102.065 81.9797 102.847 79.075 103.183 75.7745C103.811 69.3162 102.728 64.3429 99.9398 60.8566ZM50.2507 29.7656C50.5874 29.7656 51.5369 29.7539 53.0994 29.7304C54.6627 29.7065 55.9603 29.6836 56.9939 29.6601C58.0277 29.6372 59.422 29.6953 61.1776 29.8347C62.9323 29.9741 64.4105 30.1604 65.6121 30.3924C66.8136 30.6244 68.137 31.008 69.578 31.5424C71.0216 32.0765 72.1747 32.7274 73.039 33.4941C73.9052 34.2608 74.6382 35.2373 75.2381 36.4225C75.8398 37.6074 76.1403 38.9668 76.1403 40.5002C76.1403 41.8016 75.9244 42.9871 75.4922 44.0565C75.0608 45.1253 74.4101 46.0202 73.5457 46.7405C72.6811 47.461 71.79 48.089 70.8763 48.623C69.9637 49.157 68.7967 49.5873 67.3789 49.9123C65.9614 50.2378 64.7234 50.4934 63.6663 50.679C62.6085 50.865 61.2867 50.9932 59.6999 51.0626C58.1128 51.1319 56.9105 51.1793 56.0936 51.2022C55.276 51.2252 54.1585 51.2252 52.7397 51.2022C51.3206 51.1793 50.4924 51.1671 50.2514 51.1671V29.7654H50.2507V29.7656ZM80.5769 77.2393C80.1189 78.3088 79.5309 79.2389 78.8102 80.0295C78.0883 80.8182 77.1383 81.516 75.961 82.1194C74.7839 82.7244 73.641 83.2115 72.5361 83.5834C71.4298 83.9568 70.0951 84.2803 68.534 84.5601C66.9695 84.8392 65.6002 85.0355 64.4211 85.1525C63.2437 85.2689 61.8381 85.3615 60.2028 85.4318C58.5688 85.5002 57.2939 85.5356 56.3808 85.5356C55.4672 85.5356 54.3131 85.5229 52.9188 85.5002C51.5237 85.4784 50.6351 85.4667 50.2502 85.4667V61.9029C50.6343 61.9029 51.7763 61.8801 53.6758 61.8328C55.5756 61.7859 57.1252 61.7642 58.3273 61.7642C59.5291 61.7642 61.1884 61.8328 63.3046 61.9732C65.4188 62.1116 67.1978 62.3199 68.6414 62.5987C70.0832 62.8781 71.6566 63.3073 73.3646 63.889C75.0709 64.4696 76.4538 65.1782 77.5119 66.0147C78.5698 66.8527 79.4587 67.92 80.1795 69.2217C80.9022 70.5226 81.2627 72.0101 81.2627 73.6837C81.2624 74.9863 81.0343 76.1696 80.5769 77.2393Z" fill="#084E8A"/>
</g>
<defs>
<clipPath id="clip0_332_1060">
<rect width="120" height="116" fill="white"/>
</clipPath>
</defs>
</svg>
