<svg width="40" height="40" viewBox="0 0 40 40" fill="none" xmlns="http://www.w3.org/2000/svg">
<circle cx="20" cy="20" r="19.5" fill="#1F4E85" stroke="#084E8A"/>
<path d="M30.125 30.5H9.875C9.77554 30.5 9.68016 30.4605 9.60984 30.3902C9.53951 30.3199 9.5 30.2245 9.5 30.125V18.1251C9.50001 18.0589 9.51754 17.9939 9.55081 17.9366C9.58408 17.8794 9.6319 17.832 9.68941 17.7993C9.74693 17.7665 9.81209 17.7496 9.87827 17.7501C9.94446 17.7507 10.0093 17.7688 10.0663 17.8026L20 23.6893L29.9338 17.8026C29.9907 17.7688 30.0555 17.7507 30.1217 17.7501C30.1879 17.7496 30.2531 17.7665 30.3106 17.7993C30.3681 17.832 30.4159 17.8794 30.4492 17.9366C30.4825 17.9939 30.5 18.0589 30.5 18.1251V30.125C30.5 30.2245 30.4605 30.3199 30.3902 30.3902C30.3198 30.4605 30.2245 30.5 30.125 30.5ZM10.25 29.75H29.75V18.7831L20.1912 24.4475C20.1333 24.4817 20.0673 24.4998 20 24.4998C19.9327 24.4998 19.8667 24.4817 19.8088 24.4475L10.25 18.7831V29.75Z" fill="white"/>
<path d="M30.1247 18.5001C30.0385 18.5002 29.9549 18.4704 29.8881 18.4158L26.1382 15.3596C26.061 15.2967 26.012 15.2058 26.0019 15.1069C25.9918 15.0079 26.0215 14.909 26.0843 14.8319C26.1471 14.7548 26.238 14.7058 26.337 14.6957C26.436 14.6856 26.5349 14.7152 26.612 14.778L30.362 17.8343C30.4221 17.8832 30.4655 17.9495 30.4863 18.0241C30.5072 18.0988 30.5044 18.178 30.4784 18.251C30.4524 18.3239 30.4044 18.3871 30.3411 18.4317C30.2778 18.4763 30.2022 18.5002 30.1247 18.5001Z" fill="white"/>
<path d="M9.87531 18.5001C9.79786 18.5001 9.72228 18.4762 9.65897 18.4316C9.59566 18.387 9.54772 18.3238 9.52174 18.2509C9.49575 18.1779 9.49299 18.0987 9.51385 18.0241C9.5347 17.9495 9.57814 17.8832 9.6382 17.8343L13.3882 14.778C13.4264 14.7469 13.4703 14.7236 13.5175 14.7095C13.5647 14.6954 13.6142 14.6907 13.6632 14.6957C13.7122 14.7007 13.7597 14.7153 13.8031 14.7386C13.8465 14.762 13.8848 14.7937 13.9159 14.8319C13.947 14.8701 13.9703 14.914 13.9844 14.9612C13.9986 15.0084 14.0033 15.0579 13.9983 15.1069C13.9933 15.1559 13.9787 15.2034 13.9553 15.2468C13.9319 15.2901 13.9002 15.3285 13.8621 15.3596L10.112 18.4158C10.0453 18.4704 9.96159 18.5002 9.87531 18.5001Z" fill="white"/>
<path d="M26.375 20.7238C26.2755 20.7238 26.1802 20.6842 26.1098 20.6139C26.0395 20.5436 26 20.4482 26 20.3488V10.25H14V20.3488C14 20.4482 13.9605 20.5436 13.8902 20.6139C13.8198 20.6842 13.7245 20.7238 13.625 20.7238C13.5255 20.7238 13.4302 20.6842 13.3598 20.6139C13.2895 20.5436 13.25 20.4482 13.25 20.3488V9.875C13.25 9.77554 13.2895 9.68016 13.3598 9.60984C13.4302 9.53951 13.5255 9.5 13.625 9.5H26.375C26.4745 9.5 26.5698 9.53951 26.6402 9.60984C26.7105 9.68016 26.75 9.77554 26.75 9.875V20.3488C26.75 20.4482 26.7105 20.5436 26.6402 20.6139C26.5698 20.6842 26.4745 20.7238 26.375 20.7238Z" fill="white"/>
<path d="M20 17C19.6292 17 19.2667 16.89 18.9583 16.684C18.65 16.478 18.4096 16.1851 18.2677 15.8425C18.1258 15.4999 18.0887 15.1229 18.161 14.7592C18.2334 14.3955 18.412 14.0614 18.6742 13.7992C18.9364 13.537 19.2705 13.3584 19.6342 13.286C19.9979 13.2137 20.3749 13.2508 20.7175 13.3927C21.0602 13.5346 21.353 13.775 21.559 14.0833C21.765 14.3916 21.875 14.7542 21.875 15.125C21.875 15.2245 21.8355 15.3198 21.7652 15.3902C21.6948 15.4605 21.5995 15.5 21.5 15.5C21.4006 15.5 21.3052 15.4605 21.2348 15.3902C21.1645 15.3198 21.125 15.2245 21.125 15.125C21.125 14.9025 21.059 14.685 20.9354 14.5C20.8118 14.315 20.6361 14.1708 20.4305 14.0856C20.225 14.0005 19.9988 13.9782 19.7805 14.0216C19.5623 14.065 19.3618 14.1722 19.2045 14.3295C19.0472 14.4868 18.94 14.6873 18.8966 14.9055C18.8532 15.1238 18.8755 15.35 18.9606 15.5555C19.0458 15.7611 19.19 15.9368 19.375 16.0604C19.56 16.184 19.7775 16.25 20 16.25C20.0995 16.25 20.1948 16.2895 20.2652 16.3598C20.3355 16.4302 20.375 16.5255 20.375 16.625C20.375 16.7245 20.3355 16.8198 20.2652 16.8902C20.1948 16.9605 20.0995 17 20 17Z" fill="white"/>
<path d="M20 20C19.5029 19.9994 19.0263 19.8017 18.6748 19.4502C18.3233 19.0987 18.1256 18.6221 18.125 18.125C18.125 18.0255 18.1645 17.9302 18.2348 17.8598C18.3052 17.7895 18.4005 17.75 18.5 17.75C18.5995 17.75 18.6948 17.7895 18.7652 17.8598C18.8355 17.9302 18.875 18.0255 18.875 18.125C18.875 18.3475 18.941 18.565 19.0646 18.75C19.1882 18.935 19.3639 19.0792 19.5695 19.1644C19.775 19.2495 20.0012 19.2718 20.2195 19.2284C20.4377 19.185 20.6382 19.0778 20.7955 18.9205C20.9528 18.7632 21.06 18.5627 21.1034 18.3445C21.1468 18.1262 21.1245 17.9 21.0394 17.6945C20.9542 17.4889 20.81 17.3132 20.625 17.1896C20.44 17.066 20.2225 17 20 17C19.9005 17 19.8052 16.9605 19.7348 16.8902C19.6645 16.8198 19.625 16.7245 19.625 16.625C19.625 16.5255 19.6645 16.4302 19.7348 16.3598C19.8052 16.2895 19.9005 16.25 20 16.25C20.4973 16.25 20.9742 16.4475 21.3258 16.7992C21.6775 17.1508 21.875 17.6277 21.875 18.125C21.875 18.6223 21.6775 19.0992 21.3258 19.4508C20.9742 19.8025 20.4973 20 20 20Z" fill="white"/>
<path d="M20 14C19.9005 14 19.8052 13.9605 19.7348 13.8902C19.6645 13.8198 19.625 13.7245 19.625 13.625V12.875C19.625 12.7755 19.6645 12.6802 19.7348 12.6098C19.8052 12.5395 19.9005 12.5 20 12.5C20.0995 12.5 20.1948 12.5395 20.2652 12.6098C20.3355 12.6802 20.375 12.7755 20.375 12.875V13.625C20.375 13.7245 20.3355 13.8198 20.2652 13.8902C20.1948 13.9605 20.0995 14 20 14Z" fill="white"/>
<path d="M20 20.75C19.9005 20.75 19.8052 20.7105 19.7348 20.6402C19.6645 20.5698 19.625 20.4745 19.625 20.375V19.625C19.625 19.5255 19.6645 19.4302 19.7348 19.3598C19.8052 19.2895 19.9005 19.25 20 19.25C20.0995 19.25 20.1948 19.2895 20.2652 19.3598C20.3355 19.4302 20.375 19.5255 20.375 19.625V20.375C20.375 20.4745 20.3355 20.5698 20.2652 20.6402C20.1948 20.7105 20.0995 20.75 20 20.75Z" fill="white"/>
</svg>
