<svg width="40" height="40" viewBox="0 0 40 40" fill="none" xmlns="http://www.w3.org/2000/svg">
<circle cx="20" cy="20" r="19.5" fill="#E5E5E5" stroke="#084E8A"/>
<path d="M29.2935 20.1223L26.6824 16.0902C26.48 15.7777 26.1369 15.5911 25.7646 15.5911H14.2443C13.8725 15.5911 13.5297 15.7772 13.3273 16.0889L10.7081 20.1216C10.4404 20.5336 10.4818 21.0776 10.8086 21.4445L19.1834 30.8467C19.3907 31.0793 19.6882 31.2128 19.9999 31.2128C19.9999 31.2128 19.9999 31.2128 19.9999 31.2128C20.3115 31.2128 20.6091 31.0794 20.8164 30.8467L29.1921 21.444C29.5185 21.0775 29.5602 20.5341 29.2935 20.1223ZM25.2357 16.5285L23.0397 19.9241L20.8425 16.5285H25.2357ZM22.1782 20.3185H17.8215L19.9999 16.9519L22.1782 20.3185ZM19.1572 16.5286L16.966 19.9149L14.7756 16.5286H19.1572ZM13.9088 16.9146L16.1105 20.3185H11.6981L13.9088 16.9146ZM11.8961 21.2559H16.6138L19.1083 29.3529L11.8961 21.2559ZM19.9999 29.0626L17.5947 21.2559H22.405L19.9999 29.0626ZM20.8914 29.3532L23.386 21.256H28.1041L20.8914 29.3532ZM23.9013 20.3185L26.101 16.917L28.3036 20.3185H23.9013Z" fill="#084E8A"/>
<path d="M9.42186 20.3184H8.46875C8.20991 20.3184 8 20.5282 8 20.7871C8 21.046 8.20991 21.2559 8.46875 21.2559H9.42186C9.6807 21.2559 9.89061 21.046 9.89061 20.7871C9.89061 20.5282 9.6807 20.3184 9.42186 20.3184Z" fill="#084E8A"/>
<path d="M31.5312 20.3184H30.5781C30.3193 20.3184 30.1094 20.5282 30.1094 20.7871C30.1094 21.046 30.3193 21.2559 30.5781 21.2559H31.5312C31.7901 21.2559 32 21.046 32 20.7871C32 20.5282 31.7901 20.3184 31.5312 20.3184Z" fill="#084E8A"/>
<path d="M28.4911 12.3043C28.308 12.1212 28.0113 12.1212 27.8281 12.3043L26.2711 13.8613C26.088 14.0444 26.088 14.3412 26.2711 14.5242C26.3627 14.6158 26.4826 14.6615 26.6026 14.6615C26.7226 14.6615 26.8425 14.6157 26.934 14.5242L28.4911 12.9672C28.6741 12.7841 28.6741 12.4874 28.4911 12.3043Z" fill="#084E8A"/>
<path d="M13.7488 13.8531L12.1918 12.296C12.0088 12.1129 11.7121 12.1129 11.5289 12.296C11.3458 12.479 11.3458 12.7758 11.5289 12.9589L13.0859 14.5159C13.1775 14.6075 13.2974 14.6532 13.4174 14.6532C13.5373 14.6532 13.6573 14.6074 13.7488 14.5159C13.9319 14.3329 13.9319 14.0361 13.7488 13.8531Z" fill="#084E8A"/>
<path d="M20.0117 8.78711C19.7529 8.78711 19.543 8.99697 19.543 9.25586V12.3106C19.543 12.5695 19.7528 12.7794 20.0117 12.7794C20.2706 12.7794 20.4805 12.5695 20.4805 12.3106V9.25586C20.4805 8.99702 20.2706 8.78711 20.0117 8.78711Z" fill="#084E8A"/>
<path d="M20.3431 13.5651C20.2559 13.4779 20.135 13.4277 20.0117 13.4277C19.8884 13.4277 19.7675 13.4779 19.6803 13.5651C19.5931 13.6523 19.543 13.7732 19.543 13.8965C19.543 14.0202 19.5931 14.1407 19.6803 14.2279C19.7675 14.3155 19.8884 14.3652 20.0117 14.3652C20.135 14.3652 20.2559 14.3155 20.3431 14.2279C20.4307 14.1407 20.4805 14.0198 20.4805 13.8965C20.4805 13.7732 20.4307 13.6523 20.3431 13.5651Z" fill="#084E8A"/>
</svg>
