<svg width="40" height="40" viewBox="0 0 40 40" fill="none" xmlns="http://www.w3.org/2000/svg">
<rect width="40" height="40" fill="#E9B565"/>
<path d="M30.7778 17.68C30.7771 17.4139 30.6482 17.0783 30.1156 16.8323C30.146 16.7406 30.1611 16.6483 30.1609 16.5558C30.1604 16.354 30.0757 16.1704 29.9225 16.0389C29.4332 15.6188 28.241 15.783 27.7724 15.9224C27.2071 16.0905 27.0856 16.154 26.9031 16.2606C26.8906 16.2679 26.8776 16.2755 26.8638 16.2835C26.8135 16.28 26.763 16.2785 26.713 16.2785C25.998 16.2808 25.3385 16.6539 24.941 17.2669C24.6838 17.2765 24.4298 17.298 24.1782 17.3309C24.6452 16.6463 24.9693 15.9222 25.1849 15.3298C25.6316 14.9629 26.0254 14.4334 26.3022 13.8251C26.6397 13.0832 26.8385 12.8298 27.0901 12.5089C27.1957 12.3743 27.3155 12.2218 27.4533 12.0229C27.6433 11.7485 27.8137 11.4694 27.9463 11.2156C28.4727 10.2084 28.633 9.24531 28.3753 8.63937C28.2361 8.31208 27.9823 8.10135 27.6607 8.04601C27.5211 8.02205 27.373 8.02543 27.2204 8.05382C27.0171 7.20234 26.6094 6.65855 26.0882 6.56887C25.5522 6.47654 25.0325 6.87167 24.6473 7.64387C24.4957 7.54333 24.3366 7.47423 24.1715 7.44577C23.8501 7.39064 23.5513 7.5062 23.3307 7.77161C22.9223 8.26297 22.8171 9.23551 23.049 10.3729C23.0766 10.5085 23.1095 10.6475 23.1468 10.7861C23.1469 10.7865 23.147 10.787 23.1472 10.7874C23.2872 11.3075 23.4089 11.6236 23.5163 11.9026C23.671 12.3046 23.7933 12.6222 23.9237 13.4559C24.0343 14.1639 24.1986 14.6971 24.4348 15.1085C24.1471 15.8721 23.6696 16.8428 22.9249 17.5948C21.5784 17.9886 20.3487 18.7152 19.3106 19.69C19.4538 19.1657 19.5599 18.6287 19.6269 18.085C20.1098 17.4414 20.4722 16.6036 20.6523 15.7098C20.8806 14.5762 21.0719 14.1561 21.314 13.6242C21.4128 13.4072 21.5247 13.1613 21.6461 12.8495C21.8127 12.4208 21.9527 11.9919 22.0511 11.6091C22.4333 10.1219 22.3657 8.83575 21.8701 8.16859C21.6173 7.82819 21.26 7.66432 20.8645 7.70741C20.6496 7.73077 20.4279 7.81046 20.2079 7.93707C19.7028 6.85427 19.0185 6.26428 18.3277 6.3394C17.6142 6.41697 17.0703 7.16216 16.8235 8.36722C16.5487 8.25324 16.2854 8.20513 16.0449 8.23134C15.6493 8.27436 15.3269 8.51196 15.1373 8.90041C14.7656 9.66175 14.9202 10.9385 15.5509 12.3156C15.627 12.4817 15.71 12.6487 15.7978 12.8121C15.7988 12.8141 15.7998 12.8161 15.8009 12.818C16.1405 13.4494 16.3955 13.82 16.6204 14.1471C16.9533 14.6311 17.2163 15.0135 17.6485 16.0896C18.0053 16.9778 18.4001 17.632 18.851 18.0802C18.6717 19.4166 18.234 20.7062 17.575 21.8401C17.5422 21.8942 17.4142 22.1099 17.4057 22.1294C17.0317 22.792 16.7228 23.5041 16.4891 24.2548C16.4805 24.2764 16.3141 24.865 16.2518 25.1436C16.0726 25.9457 15.9773 26.7839 15.9773 27.6449V27.8505L14.617 20.7475C14.7688 20.0741 14.6301 19.3595 14.2381 18.7694L14.1178 18.1411C14.6885 17.8592 15.1363 17.2907 15.3261 16.5811L15.3645 16.4376C15.5926 15.5845 15.4092 14.6722 14.8858 14.0568C14.7919 13.9464 14.653 13.9 14.5206 13.9344C14.1058 14.0422 13.7345 14.2937 13.4482 14.6444L13.1055 12.8549C13.6421 12.2619 13.8977 11.3849 13.7784 10.5022L13.7556 10.3337C13.6233 9.35538 13.0527 8.53625 12.2665 8.19619C12.1398 8.14132 11.9963 8.16555 11.8896 8.26006C11.2285 8.84548 10.9 9.81689 11.0324 10.7948L11.0552 10.9636C11.1762 11.8587 11.6639 12.6205 12.348 13.0042L12.4178 13.3683C12.4013 13.3577 12.3852 13.3473 12.37 13.3377C11.681 12.893 10.8458 12.8831 10.1904 13.3119C10.073 13.3888 10.0005 13.5293 10 13.6816C9.997 14.5316 10.4232 15.3358 11.1104 15.7791C11.1498 15.8049 11.1909 15.8315 11.2284 15.8553C11.73 16.1791 12.3094 16.2724 12.8413 16.1339C12.7639 16.719 12.8712 17.3084 13.1409 17.791C12.7431 17.6168 12.3078 17.5751 11.8908 17.6858C11.7584 17.7209 11.6525 17.8318 11.6123 17.9773C11.388 18.7891 11.5861 19.6975 12.1292 20.3477L12.2209 20.4577C12.6585 20.9816 13.2847 21.2543 13.9205 21.2157L15.9771 31.9552V37.0659C15.9771 37.3035 16.1492 37.4961 16.3614 37.4961C16.5737 37.4961 16.7457 37.3035 16.7457 37.0659V31.9186C16.7458 31.9128 16.7458 31.9069 16.7457 31.901V27.6448C16.7457 26.6043 16.8972 25.601 17.1769 24.6607C18.0296 23.7259 19.0578 22.9991 20.176 22.5381C20.3964 23.6174 21.0696 24.5597 22.0145 25.0739L22.2136 25.1823C23.3145 25.7812 24.5953 25.6966 25.5564 24.9612C25.6687 24.8753 25.7321 24.7294 25.723 24.5774C25.6455 23.277 24.9137 22.0973 23.8133 21.4987L23.6138 21.3899C22.5318 20.8013 21.2755 20.873 20.3202 21.574C19.4555 21.8791 18.6333 22.3287 17.8855 22.9011C17.9533 22.7701 18.1904 22.3591 18.2355 22.2808C19.718 19.8633 22.1686 18.238 24.9492 18.1274C25.3492 18.7303 26.0047 19.0949 26.7137 19.0949C26.7159 19.0949 26.7181 19.0949 26.7203 19.0949C26.7705 19.0947 26.8209 19.0927 26.8712 19.0889C26.885 19.0967 26.898 19.1043 26.9106 19.1115C27.0937 19.2169 27.2156 19.2797 27.7814 19.4438C28.251 19.5801 29.4441 19.7362 29.9311 19.313C30.0835 19.1805 30.1672 18.9964 30.1666 18.7945C30.1664 18.7113 30.1536 18.6283 30.1285 18.5457C30.6537 18.2763 30.7784 17.9398 30.7778 17.68ZM25.9714 7.41923C26.1459 7.44928 26.3684 7.75334 26.4953 8.35153C26.2239 8.5213 25.9578 8.75255 25.7183 9.03133C25.5806 8.74607 25.4201 8.47066 25.2407 8.231C25.4885 7.65704 25.7839 7.38713 25.9714 7.41923ZM23.8094 10.2347C23.8056 10.2169 23.8019 10.1992 23.7983 10.1815C23.606 9.23842 23.7127 8.57497 23.8933 8.35762C23.9311 8.31221 23.9665 8.29243 24.0151 8.29243C24.0274 8.29243 24.0405 8.29368 24.0547 8.29613C24.3482 8.34663 24.8269 8.87394 25.1863 9.76527C24.829 10.1797 24.3389 10.2339 23.8094 10.2347ZM24.2221 11.562C24.1662 11.4167 24.1092 11.2687 24.0486 11.0894C24.7109 11.0597 25.4554 10.8877 25.9639 10.0528C26.4777 9.20937 27.2123 8.83965 27.544 8.89637C27.6142 8.90849 27.6515 8.93906 27.6813 9.00922C27.7954 9.27728 27.7194 9.94602 27.2829 10.781C27.2829 10.781 27.2829 10.781 27.2829 10.7811C27.1668 11.0032 27.0157 11.2504 26.846 11.4956C26.7227 11.6735 26.6159 11.8096 26.5127 11.9411C26.2482 12.2782 25.9985 12.5965 25.6173 13.4346C25.5635 13.5527 25.5032 13.6673 25.4386 13.7779C25.4877 13.486 25.522 13.1905 25.5404 12.8925C25.5494 12.7466 25.451 12.6202 25.3207 12.6101C25.1904 12.6001 25.0776 12.7102 25.0685 12.8561C25.0412 13.3001 24.9768 13.7382 24.8765 14.1659C24.7976 13.9244 24.7325 13.6397 24.6806 13.3076C24.5348 12.3743 24.3898 11.9979 24.2221 11.562ZM11.6101 15.1083C11.573 15.0848 11.5347 15.06 11.496 15.0348C11.118 14.791 10.861 14.3879 10.789 13.9445C11.1679 13.7921 11.6086 13.8394 11.9886 14.0846C12.0137 14.1005 12.039 14.1169 12.0642 14.1332L12.1024 14.158C12.4781 14.4004 12.6588 14.8148 12.7718 15.2636C12.4007 15.3972 11.9767 15.345 11.6101 15.1083ZM12.6134 12.1872C12.1923 11.9149 11.8938 11.4169 11.8151 10.8347L11.7924 10.6664C11.7136 10.0844 11.8671 9.50985 12.1974 9.11009C12.6186 9.38251 12.917 9.8803 12.9957 10.4623L13.0185 10.6308C13.0971 11.213 12.9437 11.7875 12.6134 12.1872ZM13.9008 20.3549C13.482 20.3875 13.0685 20.2125 12.7822 19.8696L12.6908 19.7601C12.3928 19.4034 12.252 18.9338 12.2987 18.4864C12.7011 18.4638 13.1098 18.6531 13.4078 19.0098C13.4078 19.0098 13.5526 19.1855 13.5773 19.2196C13.5798 19.2231 13.5823 19.2266 13.5849 19.2302C13.8268 19.569 13.9381 19.9693 13.9008 20.3549ZM13.8043 17.3556C13.5848 16.9778 13.5244 16.4871 13.6496 16.0189L13.6534 16.0048C13.6564 15.995 13.659 15.985 13.6613 15.9749L13.6879 15.8756C13.813 15.4078 14.1045 15.035 14.4733 14.8546C14.6929 15.2322 14.7532 15.7229 14.6279 16.1915L14.5897 16.3345C14.4645 16.8024 14.1732 17.1751 13.8043 17.3556ZM22.5501 24.4087L22.3505 24.3C21.7409 23.9684 21.2787 23.4111 21.0423 22.7581C21.2403 22.909 21.4561 23.0394 21.704 23.1743C22.1677 23.4266 22.6687 23.5517 23.1625 23.5517C23.6246 23.5517 24.0803 23.4417 24.4934 23.2242C24.7166 23.5708 24.8687 23.9659 24.9303 24.3834C24.2221 24.8189 23.3305 24.8333 22.5501 24.4087ZM23.2778 22.1639L23.4771 22.2725C23.7353 22.4129 23.9666 22.5945 24.1662 22.8059C23.4649 23.1244 22.6362 23.093 21.9107 22.6981C21.5636 22.5094 21.2968 22.3392 21.0551 22.1013C21.735 21.7544 22.5541 21.7701 23.2778 22.1639ZM18.4019 7.19579C18.7686 7.15574 19.2228 7.64499 19.5724 8.43704C19.1994 8.81212 18.8582 9.30766 18.597 9.87011C18.2533 9.42758 17.8907 9.06091 17.5315 8.78697C17.6803 7.86526 18.0181 7.23755 18.4019 7.19579ZM16.3196 12.102C16.2904 12.0423 16.2621 11.9826 16.2348 11.923C15.6673 10.6839 15.6508 9.73952 15.8117 9.31302C15.9142 9.04126 16.1587 9.08454 16.1794 9.08454C16.6564 9.08454 17.4825 9.64243 18.2512 10.7543C17.868 11.6038 17.1031 11.8842 16.3196 12.102ZM18.3495 15.7367C17.8803 14.5685 17.5786 14.13 17.2293 13.6221C17.0778 13.4018 16.9228 13.1764 16.7393 12.8693C17.6542 12.5934 18.6336 12.1382 19.0676 10.8039C19.3402 9.96574 19.8 9.30521 20.2449 8.92378C20.2647 8.91021 20.283 8.89492 20.2998 8.87811C20.5281 8.69358 20.7503 8.58424 20.9387 8.56372C21.0829 8.54817 21.188 8.59582 21.2792 8.7186C21.5436 9.07455 21.6564 10.0327 21.3125 11.3711C21.2232 11.7186 21.0948 12.1111 20.9415 12.5059C20.8295 12.7935 20.7277 13.0171 20.6294 13.2332C20.3733 13.7957 20.1521 14.2814 19.9027 15.5203C19.825 15.9054 19.7079 16.2764 19.5594 16.6195C19.557 16.0147 19.5084 15.41 19.4107 14.8112C19.3872 14.6674 19.2642 14.572 19.1356 14.5983C19.0072 14.6246 18.922 14.7625 18.9454 14.9063C19.0643 15.6349 19.1087 16.3728 19.0787 17.1082C18.8205 16.7631 18.5794 16.3094 18.3495 15.7367ZM25.6202 17.6903C25.8388 17.3999 26.1591 17.2076 26.5157 17.1541C26.5058 17.3305 26.5011 17.5087 26.5015 17.6875C26.502 17.8661 26.5077 18.0444 26.5186 18.2208C26.1617 18.1696 25.8404 17.9793 25.6202 17.6903ZM29.4259 17.9115C29.2891 17.9521 29.1833 18.0735 29.1505 18.2275C29.1177 18.3815 29.163 18.5433 29.2687 18.6486C29.2831 18.6631 29.2962 18.6767 29.3077 18.6894C29.0211 18.7508 28.4435 18.7471 27.9744 18.611C27.5166 18.4781 27.4121 18.4312 27.3007 18.3684C27.281 18.144 27.2706 17.915 27.27 17.6848C27.2695 17.4545 27.2786 17.2254 27.2971 17.0009C27.408 16.9375 27.5125 16.8898 27.9696 16.7539C28.438 16.6145 29.0157 16.607 29.3024 16.6667C29.2827 16.6885 29.2591 16.7128 29.2306 16.7396C29.118 16.8457 29.0694 17.0145 29.1055 17.1742C29.1415 17.334 29.256 17.4567 29.4001 17.4901C29.6763 17.5541 29.8447 17.6306 29.9374 17.6882C29.8493 17.7498 29.6894 17.8334 29.4259 17.9115Z" fill="black"/>
</svg>
