<svg width="40" height="40" viewBox="0 0 40 40" fill="none" xmlns="http://www.w3.org/2000/svg">
<rect width="40" height="40" fill="#E9B565"/>
<path d="M31.2966 8.03595H12.4684C12.3608 7.98802 12.2412 7.98802 12.1337 8.03595H8.03671C6.36036 8.03791 5.00177 9.5469 5 11.4088V29.4572C5.00177 31.3191 6.36036 32.8281 8.03671 32.8301H31.2966C32.973 32.8281 34.3316 31.3191 34.3333 29.4572V11.4088C34.3316 9.5469 32.973 8.03791 31.2966 8.03595ZM33.4288 11.4088V24.1468H15.9321C16.6272 23.6859 17.054 22.8542 17.0565 21.9552C17.0565 20.5404 16.0063 19.3894 14.7156 19.3894C13.9264 19.3885 13.1897 19.827 12.7533 20.5572V9.04063H31.2966C32.4735 9.04204 33.4275 10.1017 33.4288 11.4088ZM8.45012 21.9552C8.45971 21.0839 9.10229 20.3856 9.88645 20.3941C10.1421 20.3941 10.3932 20.4683 10.6151 20.6099C10.9694 20.8347 11.2185 21.2193 11.2975 21.6642L11.6918 23.9208L9.61615 23.4883C8.94631 23.3551 8.45643 22.7112 8.45012 21.9552ZM12.9105 23.9208L13.3045 21.6642C13.4549 20.8698 14.1172 20.3265 14.8451 20.4011C15.5727 20.4753 16.1348 21.1436 16.1519 21.9552C16.1456 22.7109 15.656 23.3548 14.9862 23.4883L12.9105 23.9208ZM8.03671 9.04063H11.8488V20.5575C11.6491 20.2208 11.3813 19.9408 11.0669 19.7395C10.708 19.5099 10.3009 19.3891 9.8867 19.3894C8.59575 19.3894 7.54582 20.5404 7.54582 21.9552C7.54834 22.8542 7.97513 23.6862 8.6702 24.1468H5.90455V11.4088C5.90581 10.1017 6.85983 9.04204 8.03671 9.04063ZM5.90455 29.4572V25.1514H11.2092L9.07377 27.5233C8.8971 27.7195 8.8971 28.0374 9.07377 28.2336C9.25044 28.4298 9.53664 28.4298 9.71331 28.2336L11.8488 25.8618V31.8254H8.03671C6.85983 31.824 5.90581 30.7644 5.90455 29.4572ZM31.2966 31.8254H12.7533V25.8618L15.6318 29.0589C15.8084 29.2551 16.0946 29.2551 16.2713 29.0589C16.448 28.8626 16.448 28.5448 16.2713 28.3485L13.3929 25.1514H33.4288V29.4572C33.4275 30.7644 32.4735 31.824 31.2966 31.8254Z" fill="black"/>
</svg>
