<svg width="40" height="40" viewBox="0 0 40 40" fill="none" xmlns="http://www.w3.org/2000/svg">
<circle cx="20" cy="20" r="19.5" fill="#084E8A" stroke="#084E8A"/>
<path fill-rule="evenodd" clip-rule="evenodd" d="M10.6603 12V33H20.6603V12H24.3205L15.6603 3L7 12H10.6603ZM9.35003 11H11.6603V32H19.6603V18V11H21.9705L15.6603 4.44222L9.35003 11Z" fill="white"/>
<path d="M34.6602 25C34.6602 30.5228 30.183 35 24.6602 35C19.1373 35 14.6602 30.5228 14.6602 25C14.6602 19.4772 19.1373 15 24.6602 15C30.183 15 34.6602 19.4772 34.6602 25Z" fill="#084E8A"/>
<path fill-rule="evenodd" clip-rule="evenodd" d="M24.6602 34C29.6307 34 33.6602 29.9706 33.6602 25C33.6602 20.0294 29.6307 16 24.6602 16C19.6896 16 15.6602 20.0294 15.6602 25C15.6602 29.9706 19.6896 34 24.6602 34ZM24.6602 35C30.183 35 34.6602 30.5228 34.6602 25C34.6602 19.4772 30.183 15 24.6602 15C19.1373 15 14.6602 19.4772 14.6602 25C14.6602 30.5228 19.1373 35 24.6602 35Z" fill="white"/>
<path d="M28.2201 27.96C28.2201 26.312 27.1961 25.16 25.3081 24.744L25.0521 24.696L25.2601 20.984C26.0921 21.096 26.9081 21.384 27.6441 21.752V20.216C26.9881 19.944 26.2521 19.688 25.3401 19.592L25.4041 18.52H24.2041L24.1401 19.576C21.8681 19.736 20.6201 21.112 20.6201 22.728C20.6201 24.488 21.6601 25.448 23.3401 25.816L23.7881 25.912L23.5641 29.784C22.4761 29.608 21.4361 29.192 20.7001 28.76V30.264C21.3561 30.616 22.2841 31.032 23.4841 31.176L23.4041 32.6H24.6041L24.6841 31.24C26.9881 31.144 28.2201 29.608 28.2201 27.96ZM23.6121 24.376C22.6521 24.168 22.1561 23.608 22.1561 22.728C22.1561 21.752 22.8921 21.112 24.0601 20.968L23.8681 24.424L23.6121 24.376ZM24.7641 29.832L24.9721 26.168C26.0921 26.408 26.6521 27.16 26.6521 27.96C26.6521 28.952 26.1241 29.736 24.7641 29.832Z" fill="white"/>
</svg>
