<svg width="40" height="39" viewBox="0 0 40 39" fill="none" xmlns="http://www.w3.org/2000/svg">
<path d="M39.5 19.2942C39.5 29.3859 30.7985 37.6178 20 37.6178C9.20146 37.6178 0.5 29.3859 0.5 19.2942C0.5 9.20255 9.20146 0.970703 20 0.970703C30.7985 0.970703 39.5 9.20255 39.5 19.2942Z" fill="#E5E5E5" stroke="#084E8A"/>
<g clip-path="url(#clip0_745_2805)">
<path d="M31.2027 13.5081L21.6357 9.10944C20.811 8.72133 19.4089 8.72133 18.5842 9.10944L8.79725 13.5081C8.10997 13.8186 8 14.2584 8 14.4913C8 14.7242 8.10997 15.1382 8.79725 15.4745L9.5945 15.8368V19.9766C9.09966 20.1578 8.74227 20.6235 8.74227 21.141C8.74227 21.6585 9.09966 22.1242 9.56701 22.3053L8.3299 26.0053H11.7938L10.5567 22.3053C11.0515 22.1242 11.3814 21.6585 11.3814 21.141C11.3814 20.5976 11.0241 20.1578 10.5292 19.9766V16.2766L11.9863 16.9494V22.3312C11.9863 22.4088 12.0137 22.4864 12.0687 22.5641C12.2062 22.7193 14.7629 26.0053 19.9863 26.0053C25.2096 26.0053 27.7663 22.6934 27.8763 22.5641C27.9313 22.4864 27.9588 22.4088 27.9588 22.3312V16.9752L31.2027 15.4745C31.89 15.164 32 14.7242 32 14.4913C31.9725 14.2584 31.89 13.8186 31.2027 13.5081ZM27.079 22.2018C26.6392 22.7193 24.2749 25.2032 19.9863 25.2032C15.6976 25.2032 13.3333 22.7193 12.8935 22.2018V17.3116L18.5842 19.8731C18.9966 20.0543 19.5464 20.1578 20.0962 20.1578C20.6735 20.1578 21.2234 20.0543 21.6357 19.8473L27.079 17.3375V22.2018ZM30.8179 14.75L27.5189 16.2766C27.3814 16.2766 27.2715 16.3284 27.2165 16.4319L21.2509 19.1487C20.6735 19.4333 19.5464 19.4333 18.9416 19.1487L11.6014 15.8368L20.0412 14.9053C20.2887 14.8794 20.4536 14.6724 20.4261 14.4654C20.3986 14.2326 20.1787 14.0773 19.9588 14.1032L10.1718 15.1899L9.18213 14.75C8.93471 14.6465 8.87973 14.5172 8.87973 14.5172C8.87973 14.4913 8.93471 14.3878 9.18213 14.2843L18.9691 9.8598C19.2715 9.73043 19.6838 9.6528 20.0962 9.6528C20.5361 9.6528 20.9759 9.73043 21.2509 9.8598L30.8179 14.2584C31.0653 14.3619 31.1203 14.4654 31.1203 14.5172C31.1203 14.5172 31.0378 14.6465 30.8179 14.75Z" fill="#084E8A"/>
</g>
<defs>
<clipPath id="clip0_745_2805">
<rect width="24" height="22.5882" fill="white" transform="translate(8 6.11768)"/>
</clipPath>
</defs>
</svg>
