<svg width="40" height="40" viewBox="0 0 40 40" fill="none" xmlns="http://www.w3.org/2000/svg">
<rect width="40" height="40" fill="#E9B565"/>
<path d="M32.5936 14.0257H19.2807C19.2046 13.9914 19.12 13.9914 19.044 14.0257H16.1472C14.9619 14.0271 14.0012 15.105 14 16.4349V29.3271C14.0012 30.657 14.9619 31.7349 16.1472 31.7363H32.5936C33.7789 31.7349 34.7395 30.657 34.7407 29.3271V16.4349C34.7395 15.105 33.7789 14.0271 32.5936 14.0257ZM34.1012 16.4349V25.5338H21.7298C22.2212 25.2046 22.523 24.6105 22.5248 23.9683C22.5248 22.9577 21.7822 22.1355 20.8696 22.1355C20.3116 22.1349 19.7907 22.4481 19.4821 22.9697V14.7433H32.5936C33.4257 14.7443 34.1003 15.5012 34.1012 16.4349ZM16.4395 23.9683C16.4463 23.346 16.9006 22.8472 17.4551 22.8532C17.6358 22.8532 17.8134 22.9062 17.9703 23.0074C18.2208 23.1679 18.3969 23.4427 18.4528 23.7604L18.7316 25.3724L17.2639 25.0634C16.7903 24.9683 16.4439 24.5083 16.4395 23.9683ZM19.5933 25.3724L19.8719 23.7604C19.9782 23.193 20.4465 22.8049 20.9612 22.8582C21.4757 22.9112 21.8731 23.3886 21.8852 23.9683C21.8807 24.5081 21.5345 24.9681 21.0609 25.0634L19.5933 25.3724ZM16.1472 14.7433H18.8426V22.9699C18.7014 22.7294 18.5121 22.5294 18.2897 22.3856C18.0359 22.2216 17.7481 22.1353 17.4552 22.1355C16.5424 22.1355 15.8001 22.9577 15.8001 23.9683C15.8019 24.6105 16.1036 25.2048 16.5951 25.5338H14.6396V16.4349C14.6405 15.5012 15.315 14.7443 16.1472 14.7433ZM14.6396 29.3271V26.2514H18.3903L16.8804 27.9456C16.7555 28.0858 16.7555 28.3129 16.8804 28.453C17.0054 28.5932 17.2077 28.5932 17.3326 28.453L18.8426 26.7588V31.0187H16.1472C15.315 31.0177 14.6405 30.2608 14.6396 29.3271ZM32.5936 31.0187H19.4821V26.7588L21.5174 29.0425C21.6423 29.1827 21.8447 29.1827 21.9696 29.0425C22.0945 28.9024 22.0945 28.6753 21.9696 28.5351L19.9343 26.2514H34.1012V29.3271C34.1003 30.2608 33.4257 31.0177 32.5936 31.0187Z" fill="black"/>
<path fill-rule="evenodd" clip-rule="evenodd" d="M6 12.4568C6 11.5994 6.69516 10.9043 7.55269 10.9043H15.3002C16.2419 10.9043 17.0053 11.6676 17.0053 12.6091V13.1875C17.0053 13.3587 16.8665 13.4974 16.6953 13.4974C16.5241 13.4974 16.3853 13.3587 16.3853 13.1875V12.6091C16.3853 12.0099 15.8995 11.5242 15.3002 11.5242H7.55269C7.03759 11.5242 6.62002 11.9417 6.62002 12.4568V28.882C6.62002 29.4812 7.1058 29.9669 7.70505 29.9669H13.1448C13.316 29.9669 13.4548 30.1057 13.4548 30.2769C13.4548 30.4481 13.316 30.5868 13.1448 30.5868H7.70505C6.76337 30.5868 6 29.8236 6 28.882V12.4568Z" fill="black"/>
<path fill-rule="evenodd" clip-rule="evenodd" d="M10.1445 9.60645C10.2482 9.46999 10.4429 9.44345 10.5794 9.54715L12.0248 10.6457C12.1612 10.7494 12.1878 10.9441 12.0841 11.0805C11.9804 11.217 11.7857 11.2435 11.6492 11.1398L10.2038 10.0413C10.0673 9.9376 10.0408 9.74291 10.1445 9.60645Z" fill="black"/>
<path fill-rule="evenodd" clip-rule="evenodd" d="M14.036 9.60645C13.9323 9.46999 13.7376 9.44345 13.6012 9.54715L12.1558 10.6457C12.0193 10.7494 11.9928 10.9441 12.0965 11.0805C12.2002 11.217 12.3949 11.2435 12.5313 11.1398L13.9767 10.0413C14.1132 9.9376 14.1398 9.74291 14.036 9.60645Z" fill="black"/>
<path fill-rule="evenodd" clip-rule="evenodd" d="M12.2434 9C12.4187 9 12.5609 9.13897 12.5609 9.31041L12.5609 11.0176C12.5609 11.1891 12.4187 11.328 12.2434 11.328C12.0681 11.328 11.9259 11.1891 11.9259 11.0176L11.9259 9.31041C11.9259 9.13897 12.0681 9 12.2434 9Z" fill="black"/>
</svg>
