<svg width="40" height="40" viewBox="0 0 40 40" fill="none" xmlns="http://www.w3.org/2000/svg">
<rect width="40" height="40" fill="#E9B565"/>
<path d="M30.8905 20.7996H29.9868V11.4609C29.9868 9.96388 28.8968 8.74593 27.5571 8.74593H27.0685C26.7658 7.78678 25.5321 7.14302 25.3741 7.06398C25.2743 7.01408 25.1603 7.01408 25.0605 7.06398C24.9025 7.14302 23.6688 7.78678 23.3661 8.74593H22.5578C22.227 7.37822 20.4037 6.42794 20.1774 6.31477C20.0777 6.26487 19.9636 6.26487 19.8639 6.31477C19.6377 6.42794 17.8144 7.37822 17.4835 8.74593H16.6752C16.3725 7.78678 15.1388 7.14302 14.9808 7.06398C14.8811 7.01408 14.767 7.01408 14.6672 7.06398C14.5092 7.14302 13.2755 7.78678 12.9728 8.74593H12.4842C11.1445 8.74593 10.0545 9.96388 10.0545 11.4609V20.7996H9.15092C8.51628 20.7996 8 21.3765 8 22.0856C8 22.7947 8.51628 23.3716 9.15092 23.3716H16.1101C16.2883 24.3488 17.0633 25.0863 17.9897 25.0863H18.666V27.1805C17.8096 27.6764 17.2314 28.6031 17.1077 29.6653H15.789C15.0756 29.6653 14.2897 30.236 13.9999 30.9645L13.4937 32.2374H12.7199C12.5081 32.2374 12.3363 32.4293 12.3363 32.666C12.3363 32.9029 12.5081 33.0947 12.7199 33.0947H13.7408C13.7442 33.0947 26.2972 33.0947 26.2972 33.0947C26.3006 33.0947 27.3214 33.0947 27.3214 33.0947C27.5333 33.0947 27.7051 32.9029 27.7051 32.666C27.7051 32.4293 27.5333 32.2374 27.3214 32.2374H26.5477L26.0415 30.9645C25.7517 30.236 24.9658 29.6653 24.2523 29.6653H22.9336C22.81 28.6031 22.2318 27.6764 21.3753 27.1804V25.0863H22.0517C22.9781 25.0863 23.7531 24.3488 23.9313 23.3716H30.8905C31.5251 23.3716 32.0414 22.7947 32.0414 22.0856C32.0414 21.3765 31.5251 20.7996 30.8905 20.7996ZM25.2173 7.93116C25.5642 8.13063 25.9688 8.43962 26.1941 8.74593H24.2407C24.4659 8.43957 24.8705 8.13052 25.2173 7.93116ZM20.0209 7.18086C20.5193 7.4595 21.434 8.08365 21.7393 8.74593H18.3026C18.6085 8.08502 19.5231 7.46002 20.0209 7.18086ZM14.824 7.93116C15.1709 8.13063 15.5755 8.43962 15.8008 8.74593H13.8474C14.0726 8.43957 14.4773 8.13052 14.824 7.93116ZM12.4843 9.60328H27.5571C28.4737 9.60328 29.2195 10.4366 29.2195 11.4609V12.7755C28.5258 12.8794 28.1212 13.2579 27.7589 13.5986C27.3725 13.962 27.0673 14.249 26.4087 14.249C25.7501 14.249 25.4449 13.962 25.0585 13.5986C24.634 13.1994 24.1528 12.7469 23.2142 12.7469C22.2757 12.7469 21.7946 13.1994 21.3701 13.5987C20.9838 13.962 20.6787 14.249 20.0202 14.249C19.3616 14.249 19.0565 13.962 18.6701 13.5986C18.2457 13.1994 17.7645 12.7469 16.826 12.7469C15.8875 12.7469 15.4064 13.1994 14.982 13.5986C14.7551 13.8121 14.5407 14.0138 14.2632 14.1315C14.1142 14.1946 14.0157 14.3541 14.0157 14.5322V16.892C14.0157 17.1284 13.8436 17.3206 13.6321 17.3206C13.4206 17.3206 13.2484 17.1284 13.2484 16.892C13.2484 16.1106 13.2484 14.6377 13.2486 14.5392C13.2513 14.3612 13.1542 14.1964 13.0011 14.1315C12.7235 14.0138 12.5091 13.8121 12.2822 13.5987C11.92 13.2579 11.5155 12.8795 10.8218 12.7755V11.4609C10.8218 10.4366 11.5676 9.60328 12.4843 9.60328ZM10.8218 13.6436C11.2327 13.7335 11.4859 13.9703 11.7881 14.2545C11.9861 14.4408 12.2048 14.6464 12.4813 14.8083L12.4812 16.8919C12.4812 17.601 12.9975 18.1779 13.6321 18.1779C14.2668 18.1779 14.783 17.601 14.783 16.8919V14.8083C15.0595 14.6464 15.2782 14.4407 15.4762 14.2545C15.8625 13.8912 16.1676 13.6042 16.8261 13.6042C17.4847 13.6042 17.7898 13.8912 18.1761 14.2546C18.6006 14.6538 19.0817 15.1063 20.0202 15.1063C20.9587 15.1063 21.4398 14.6538 21.8643 14.2545C22.2506 13.8912 22.5557 13.6042 23.2143 13.6042C23.8729 13.6042 24.1781 13.8912 24.5645 14.2546C24.989 14.6538 25.4702 15.1063 26.4087 15.1063C27.3473 15.1063 27.8285 14.6538 28.253 14.2546C28.5553 13.9703 28.8086 13.7335 29.2196 13.6435V20.7995H10.8218V13.6436ZM20.8458 27.8501C21.5426 28.1705 22.029 28.8579 22.1575 29.6653H20.0239C19.812 29.6653 19.6402 29.8571 19.6402 30.0939C19.6402 30.3307 19.812 30.5226 20.0239 30.5226H24.2524C24.6646 30.5226 25.173 30.8918 25.3404 31.3126L25.7082 32.2373H14.3333L14.701 31.3126C14.8685 30.8918 15.3769 30.5226 15.789 30.5226H18.4893C18.7012 30.5226 18.8729 30.3307 18.8729 30.0939C18.8729 29.8571 18.7012 29.6653 18.4893 29.6653H17.884C18.0124 28.8579 18.4988 28.1706 19.1957 27.8501C19.3395 27.7841 19.4333 27.6275 19.4333 27.4537V25.0863H20.6081V27.4537C20.6081 27.6275 20.7019 27.7841 20.8458 27.8501ZM22.0517 24.229H17.9897C17.4895 24.229 17.0631 23.8706 16.9047 23.3716H23.1367C22.9783 23.8706 22.5519 24.229 22.0517 24.229ZM30.8905 22.5143H9.15092C8.93935 22.5143 8.76728 22.322 8.76728 22.0856C8.76728 21.8492 8.93935 21.6569 9.15092 21.6569H30.8905C31.102 21.6569 31.2741 21.8492 31.2741 22.0856C31.2741 22.322 31.102 22.5143 30.8905 22.5143Z" fill="black"/>
<path d="M25.2989 19.4375C25.5108 19.4375 25.6826 19.2453 25.6826 19.0083C25.6826 18.7713 25.5108 18.5791 25.2989 18.5791C25.087 18.5791 24.9153 18.7713 24.9153 19.0083C24.9153 19.2453 25.087 19.4375 25.2989 19.4375Z" fill="black"/>
<path d="M26.8333 17.7217C27.0452 17.7217 27.217 17.53 27.217 17.2935C27.217 17.057 27.0452 16.8652 26.8333 16.8652C26.6215 16.8652 26.4497 17.057 26.4497 17.2935C26.4497 17.53 26.6215 17.7217 26.8333 17.7217Z" fill="black"/>
</svg>
